<svg width="36" height="36" viewBox="0 0 36 36" fill="none" xmlns="http://www.w3.org/2000/svg">
<path d="M3.94113 32.9899C3.02307 32.9899 2.21054 32.7057 1.56684 32.2287C0.163377 31.2037 -0.448659 29.306 0.363873 27.6213L2.05225 24.8204L12.0453 8.17702C13.1006 6.4112 15.2744 5.88348 17.005 6.57357C17.7542 6.87802 18.419 7.40574 18.8833 8.17702L18.9994 8.37999C17.6698 8.04509 16.1608 8.44087 15.2427 9.58764C15.2111 9.60794 15.1794 9.62824 15.1583 9.64854L6.22044 24.5362C6.17823 24.6073 6.13602 24.6885 6.09381 24.7595L4.24715 27.8345C3.95168 28.3317 3.7934 28.8493 3.77229 29.3669C3.66677 31.2342 5.19686 33 7.34954 33" fill="url(#paint0_linear_559_2410)"/>
<path d="M32.2109 32.9899C32.1582 32.9899 32.1054 32.9899 32.0526 32.9899H32.2109Z" fill="url(#paint1_linear_559_2410)"/>
<path d="M31.9155 27.9055C31.2718 28.3825 30.4487 28.6768 29.5201 28.6768H29.3407C30.3221 27.7228 30.7019 26.2513 30.111 24.9117C30.0477 24.7798 29.9844 24.6479 29.9 24.5159L19.1682 6.61416C19.0943 6.48223 18.9994 6.36045 18.9149 6.23867C18.6828 5.93422 18.4084 5.69066 18.1024 5.48769C16.4879 4.41196 14.1136 4.76715 12.9951 6.54312L14.5885 3.89439C15.0633 3.10282 15.7598 2.56495 16.5301 2.27065C18.2501 1.611 20.3712 2.15902 21.4053 3.89439L22.8299 6.25897L33.224 23.562C33.8571 25.1756 33.2345 26.9313 31.9155 27.9055Z" fill="url(#paint2_linear_559_2410)"/>
<path d="M28.4965 24.2216H24.5288L15.8337 9.73987C15.707 9.52676 15.4327 9.46587 15.2216 9.5775C16.1397 8.43073 17.6487 8.03494 18.9783 8.36984L28.4965 24.2216Z" fill="url(#paint3_linear_559_2410)"/>
<path d="M8.99572 29.6815C7.42341 29.5495 6.23099 28.484 5.85111 27.1545L15.3799 11.2723L17.3637 14.5705L8.67914 29.032C8.53141 29.306 8.70025 29.6307 8.99572 29.6815Z" fill="url(#paint4_linear_559_2410)"/>
<path d="M35.9676 29.6916C35.7249 31.427 34.2475 32.9188 32.2109 32.9899H9.17511C7.06463 32.9899 5.51343 31.4676 5.26017 29.6916C5.15465 28.9102 5.29183 28.078 5.75614 27.3068L5.84055 27.1545C6.22044 28.4738 7.41286 29.5495 8.98516 29.6815C9.00626 29.6815 9.03792 29.6916 9.05903 29.6916H9.08013C9.11179 29.6916 9.14345 29.6916 9.17511 29.6916C9.21732 29.6916 9.25952 29.6916 9.30173 29.6916H30.7336C30.8075 29.6916 30.8813 29.6916 30.9446 29.6815C31.4512 29.651 31.926 29.5292 32.3481 29.3263C33.9415 28.555 34.7752 26.6775 34.0681 24.9828L35.4611 27.3068C35.9254 28.078 36.0731 28.9102 35.9676 29.6916Z" fill="url(#paint5_linear_559_2410)"/>
<path d="M29.3512 28.6768H10.2831L12.267 25.3786H29.6256C29.9738 25.3786 30.1849 25.0234 30.016 24.7291L30.1216 24.9117C30.7125 26.2513 30.3221 27.7228 29.3512 28.6768Z" fill="url(#paint6_linear_559_2410)"/>
<defs>
<linearGradient id="paint0_linear_559_2410" x1="6.3066" y1="30.9658" x2="15.9141" y2="0.286184" gradientUnits="userSpaceOnUse">
<stop stop-color="#0892D0"/>
<stop offset="1" stop-color="#162A69"/>
</linearGradient>
<linearGradient id="paint1_linear_559_2410" x1="-nan" y1="-nan" x2="-nan" y2="-nan" gradientUnits="userSpaceOnUse">
<stop stop-color="#0892D0"/>
<stop offset="1" stop-color="#162A69"/>
</linearGradient>
<linearGradient id="paint2_linear_559_2410" x1="31.6493" y1="31.5542" x2="19.5763" y2="-0.23784" gradientUnits="userSpaceOnUse">
<stop stop-color="#0892D0"/>
<stop offset="1" stop-color="#162A69"/>
</linearGradient>
<linearGradient id="paint3_linear_559_2410" x1="5.23039" y1="2.10125" x2="17.7413" y2="36.5295" gradientUnits="userSpaceOnUse">
<stop stop-color="#0892D0"/>
<stop offset="1" stop-color="#162A69"/>
</linearGradient>
<linearGradient id="paint4_linear_559_2410" x1="4.03355" y1="30.6701" x2="14.4464" y2="-1.70215" gradientUnits="userSpaceOnUse">
<stop stop-color="#0892D0"/>
<stop offset="1" stop-color="#162A69"/>
</linearGradient>
<linearGradient id="paint5_linear_559_2410" x1="35.2166" y1="17.4994" x2="1.1829" y2="17.4994" gradientUnits="userSpaceOnUse">
<stop stop-color="#0892D0"/>
<stop offset="1" stop-color="#162A69"/>
</linearGradient>
<linearGradient id="paint6_linear_559_2410" x1="11.0686" y1="26.7026" x2="30.0299" y2="26.7026" gradientUnits="userSpaceOnUse">
<stop stop-color="#0892D0"/>
<stop offset="1" stop-color="#162A69"/>
</linearGradient>
</defs>
</svg>
