<svg width="24" height="24" viewBox="0 0 24 24" fill="none" xmlns="http://www.w3.org/2000/svg">
<g clip-path="url(#clip0_559_2530)">
<path d="M10.944 5.18408H13.056L13.248 5.37608L13.392 6.09608V6.33608L13.824 6.48008L14.448 6.76808L14.928 6.96008L15.168 6.86408L15.792 6.43208H16.128L17.568 7.87208V8.20808L17.04 8.97608L17.184 9.40808L17.568 10.3681L17.664 10.6081L18.144 10.6561L18.72 10.8001L18.816 10.9441V13.0561L18.624 13.2481L17.664 13.4401L17.04 14.9281L17.136 15.1681L17.568 15.7921V16.1281L16.128 17.5681H15.792L15.024 17.0401L14.592 17.1841L13.632 17.5681L13.392 17.6641L13.344 18.1441L13.2 18.7201L13.056 18.8161H10.944L10.752 18.6241L10.56 17.6641L9.07196 17.0401L8.83196 17.1361L8.20796 17.5681H7.87196L6.43196 16.1281V15.7921L6.95996 15.0241L6.81596 14.5921L6.43196 13.6321L6.33596 13.4401L5.42396 13.2481L5.23196 13.1521L5.18396 13.0561V10.9441L5.27996 10.8001L6.09596 10.6081H6.33596L6.47996 10.1761L6.95996 9.07208L6.86396 8.83208L6.43196 8.16008V7.87208L7.87196 6.43208H8.15996L8.92796 6.91208L9.07196 6.96008L10.368 6.43208L10.608 6.33608L10.656 5.85608L10.8 5.28008L10.944 5.18408ZM11.28 7.87208L10.56 8.06408L9.88796 8.40008L9.26396 8.88008L8.78396 9.36008L8.39996 9.88808L8.06396 10.5601L7.87196 11.2801V12.7201L8.06396 13.4401L8.39996 14.1121L8.87996 14.7361L9.35996 15.2161L10.128 15.7441L10.704 15.9841L11.04 16.0801L11.568 16.1281H12.432L12.96 16.0801L13.536 15.8881L14.112 15.6001L14.736 15.1201L15.216 14.6401L15.744 13.8721L15.984 13.2961L16.08 12.9601L16.128 12.4321V11.5681L16.08 11.0401L15.84 10.3201L15.504 9.74408L15.072 9.21608L14.64 8.78408L13.968 8.30408L13.296 8.01608L12.72 7.87208H11.28Z" fill="white"/>
<path d="M20.832 13.3442L20.976 13.3922L21.264 13.8242L21.648 14.0162L22.08 13.9682L22.416 13.6802L22.512 13.4882H22.656L22.512 14.3522L22.176 15.5522L21.888 16.3202L21.456 17.2322L21.024 17.9042L20.448 18.6722L19.92 19.2962L19.584 19.6802L19.104 20.1122L18.432 20.6402L17.568 21.2642L16.368 21.8882L15.888 22.0322L15.216 22.2722L14.352 22.5122L13.92 22.5602V23.4242L13.824 23.5202H13.536L12.144 22.8002L11.232 22.3202L10.56 21.9362L10.512 21.6962L10.752 21.4562L11.808 20.8322L12.384 20.4482L12.912 20.1122L13.296 19.9202L13.44 19.8242H13.776L13.872 19.9682L13.92 20.6882L15.168 20.3042L15.6 20.1122L16.032 19.9682L16.656 19.5842L17.424 19.0562L18.048 18.5282L18.432 18.0962L18.672 17.9042L19.2 17.2322L19.68 16.5122L20.016 15.9362L20.256 15.2642L20.64 14.1122L20.784 13.3922L20.832 13.3442Z" fill="white"/>
<path d="M2.11198 10.5122L2.39998 10.5602L2.97598 11.4722L3.55198 12.3842L3.88798 12.9122L4.07998 13.2962L4.17598 13.4402V13.7762L4.03198 13.8722L3.31198 13.9202L3.59998 14.8802L3.88798 15.6002L4.03198 16.0322L4.41598 16.6562L4.94398 17.4242L5.51998 18.0962L5.90398 18.4322L6.14398 18.7202L6.76798 19.2002L7.58398 19.7282L8.06398 20.0162L8.73598 20.2562L9.88798 20.6402L10.608 20.7842V20.9762L10.176 21.2642L9.98398 21.6482L10.032 22.0802L10.32 22.4162L10.512 22.5122V22.6562L9.64798 22.5122L8.44798 22.1762L7.87198 21.9362L7.43998 21.7922L6.52798 21.3122L5.75998 20.7842L5.08798 20.2562L4.60798 19.8722L4.36798 19.6322L3.88798 19.1042L3.35998 18.4322L2.73598 17.5682L2.15998 16.4642L1.87198 15.6482L1.63198 14.9282L1.43998 14.1122V13.9202H0.57598L0.47998 13.8242V13.5362L1.19998 12.1442L1.67998 11.2322L2.06398 10.5602L2.11198 10.5122Z" fill="white"/>
<path d="M10.176 0.47998H10.464L11.856 1.19998L12.768 1.67998L13.44 2.06398L13.488 2.30398L13.296 2.49598L12.288 3.11998L11.616 3.55198L11.088 3.88798L10.704 4.07998L10.56 4.17598H10.224L10.128 4.03198L10.08 3.31198L9.11999 3.59998L8.39999 3.88798L7.87199 4.07998L7.43999 4.36798L6.76799 4.79998L5.99999 5.42398L5.66399 5.75998L5.42399 5.99998L4.89599 6.62398L4.41599 7.34398L4.12799 7.82398L3.93599 8.15998L3.79199 8.59198L3.35999 9.88798L3.21599 10.608H3.02399L2.73599 10.176L2.35199 9.98398L1.91999 10.032L1.58399 10.32L1.48799 10.512H1.34399L1.43999 9.88798L1.72799 8.73598L2.01599 7.96798L2.20799 7.43998L2.73599 6.43198L3.35999 5.56798L3.74399 5.08798L4.12799 4.60798L4.36799 4.36798L4.89599 3.88798L5.56799 3.35998L6.43199 2.73598L7.63199 2.11198L8.11199 1.96798L8.73599 1.72798L9.88799 1.43998H10.08V0.57598L10.176 0.47998Z" fill="white"/>
<path d="M13.488 1.34424L14.352 1.48824L15.552 1.82424L16.128 2.06424L16.56 2.20824L17.568 2.73624L18.432 3.36024L18.96 3.79224L19.392 4.12824L19.632 4.36824L20.112 4.89624L20.64 5.56824L21.216 6.38424L21.648 7.15224L21.888 7.63224L22.032 8.11224L22.272 8.78424L22.512 9.64824L22.56 10.0802H23.424L23.52 10.1762V10.4642L22.8 11.8562L22.32 12.7682L21.936 13.4402L21.696 13.4882L21.504 13.2962L20.88 12.2882L20.448 11.6162L20.112 11.0882L19.92 10.7042L19.824 10.5602V10.2242L19.968 10.1282L20.688 10.0802L20.304 8.83224L20.112 8.40024L19.968 7.96824L19.584 7.34424L19.2 6.76824L18.816 6.28824L18.384 5.80824L18.096 5.56824L17.856 5.28024L17.04 4.65624L15.84 3.93624L15.408 3.79224L14.112 3.36024L13.392 3.21624V3.02424L13.824 2.73624L14.016 2.35224L13.968 1.92024L13.68 1.58424L13.488 1.48824V1.34424Z" fill="white"/>
<path d="M11.664 11.7598H12.336L13.008 11.9038L13.68 12.1918L14.16 12.5758L14.592 13.0558L14.88 13.5358L15.024 13.9678L14.64 14.4478L14.304 14.7838L13.968 15.0238H13.872V15.1198L13.248 15.4078L12.72 15.5518L12.384 15.5998H11.616L10.896 15.4558L10.32 15.2158L10.032 15.0238L9.55195 14.6398L9.21595 14.3038L8.97595 13.9198L9.21595 13.3438L9.59995 12.8158L9.98395 12.4318L10.464 12.0958L11.136 11.8558L11.664 11.7598Z" fill="white"/>
<path d="M11.9521 8.5918L12.5281 8.6878L12.9121 8.9278L13.1521 9.1678L13.3921 9.6478L13.4401 9.8878V10.2238L13.2961 10.7038L12.9601 11.1358L12.5761 11.3758L12.1921 11.4718H11.8081L11.3281 11.3278L10.8961 10.9918L10.6561 10.5598L10.5601 10.1758L10.6081 9.6478L10.8481 9.1678L11.0881 8.9278L11.4721 8.6878L11.9521 8.5918Z" fill="white"/>
</g>
<defs>
<clipPath id="clip0_559_2530">
<rect width="24" height="24" fill="white"/>
</clipPath>
</defs>
</svg>
