<svg width="24" height="24" viewBox="0 0 24 24" fill="none" xmlns="http://www.w3.org/2000/svg">
<g clip-path="url(#clip0_559_2544)">
<path d="M18.336 12.5762H21.072V22.6082H23.328L23.568 22.7522V23.1362L23.424 23.2802H0.576007L0.432007 23.1362V22.7522L0.672007 22.6082H2.92801V18.0962H5.66401L5.71201 18.1442V22.6082H8.11201V14.4002H10.8V22.6082H13.2V16.7522H15.888V22.6082H18.288V12.6242L18.336 12.5762Z" fill="white"/>
<path d="M19.344 6.14404H20.016L20.448 6.28804L20.88 6.62404L21.168 7.05604L21.264 7.29604L21.312 7.92004L21.12 8.54404L20.832 8.92804L20.4 9.21604L19.92 9.36004H19.44L18.96 9.21604L18.768 9.12004L18.144 9.69604L17.376 10.416L16.56 11.184L15.984 11.712L16.128 12.192V12.912L15.984 13.344L15.648 13.824L15.168 14.064L14.688 14.16L14.112 14.112L13.536 13.824L13.152 13.392L13.008 13.056L12.96 12.816V12.288L13.056 12L12.624 11.856V11.76L12.384 11.664L11.952 11.424L10.848 10.752L10.704 10.656L10.512 10.704L10.032 10.992L9.69599 11.088H9.16799L8.68799 10.944L8.44799 10.848L7.72799 11.52H7.63199L7.53599 11.712L7.24799 11.952L6.86399 12.288L6.28799 12.816L5.95199 13.104L5.75999 13.344L5.90399 13.728V14.544L5.61599 15.12L5.27999 15.456L4.79999 15.696L4.60799 15.744H4.03199L3.50399 15.552L3.11999 15.264L2.83199 14.832L2.68799 14.304L2.73599 13.68L3.02399 13.104L3.40799 12.768L3.79199 12.576L3.98399 12.528H4.65599L5.13599 12.72L5.27999 12.768L5.99999 12.096L6.38399 11.76L6.95999 11.232L7.48799 10.752L7.87199 10.416L8.01599 10.224L7.87199 9.88804V9.12004L8.06399 8.64004L8.39999 8.20804L8.49599 8.11204L9.07199 7.92004H9.83999L10.416 8.16004L10.752 8.49604L10.992 8.97604L11.04 9.21604V9.74404L10.992 10.032L11.328 10.176L11.52 10.32L11.904 10.512V10.608L12.144 10.704L13.344 11.424L13.536 11.328L13.872 11.088L14.112 10.992L14.688 10.944L15.264 11.088L15.504 11.184L15.984 10.752L16.224 10.512L16.368 10.464L16.464 10.272L17.088 9.69604L17.472 9.36004L17.856 8.97604L18.096 8.73604L18.24 8.59204L18.096 8.16004V7.34404L18.288 6.91204L18.576 6.52804L19.056 6.24004L19.344 6.14404Z" fill="white"/>
<path d="M3.79206 0.720215H4.12806L4.17606 4.12821L4.70406 4.89621L5.32806 5.76021L5.76006 6.33622L6.04806 6.76821L6.14406 6.91221V7.05621L5.56806 7.34421L4.99206 7.48821L4.27206 7.53621L3.55206 7.44022L2.78406 7.15222L2.16006 6.72021L1.72806 6.24021L1.29606 5.61621L1.05606 4.89621L1.00806 4.70421V3.50421L1.20006 2.83221L1.48806 2.25621L1.58406 2.11221H1.68006L1.77606 1.92021L2.25606 1.39221L2.88006 1.00821L3.55206 0.768215L3.79206 0.720215Z" fill="white"/>
<path d="M4.60803 0.720215H4.99203L5.66403 0.912215L6.14403 1.15221L6.57603 1.48821L6.91203 1.77621L7.29603 2.25621L7.63203 2.92821L7.77603 3.45621V3.84021L7.72803 3.88821H4.60803V0.720215Z" fill="white"/>
<path d="M11.424 1.104H14.064L14.256 1.296V3.312L14.016 3.552H11.472L11.28 3.408V1.248L11.424 1.104Z" fill="white"/>
<path d="M11.472 4.22412H14.016L14.256 4.46412V6.43212L14.16 6.62412L14.064 6.67212H11.424L11.28 6.52812V4.36812L11.472 4.22412Z" fill="white"/>
<path d="M4.896 4.31982H7.728L7.776 4.36782V4.70382L7.632 5.27982L7.344 5.85582L6.816 6.52782L6.624 6.67182H6.48L6.096 6.14382L5.952 5.90382L5.28 4.99182L4.896 4.46382V4.31982Z" fill="white"/>
<path d="M15.072 4.56006H18.96L19.104 4.70406V5.04006L18.96 5.18406H15.072L14.928 5.04006V4.70406L15.072 4.56006Z" fill="white"/>
<path d="M15.12 1.39209H18.912L19.104 1.53609V1.87209L18.96 2.01609H15.072L14.928 1.87209V1.53609L15.12 1.39209Z" fill="white"/>
<path d="M15.216 2.54395H16.848L17.088 2.68795L17.136 2.97595L16.992 3.21595H15.072L14.928 3.07195V2.73595L15.072 2.59195L15.216 2.54395Z" fill="white"/>
<path d="M15.072 5.75977H16.944L17.088 5.85577L17.136 6.14377L16.896 6.38377H15.12L14.928 6.19177V5.90377L15.072 5.75977Z" fill="white"/>
</g>
<defs>
<clipPath id="clip0_559_2544">
<rect width="24" height="24" fill="white"/>
</clipPath>
</defs>
</svg>
