<svg width="20" height="20" viewBox="0 0 20 20" fill="none" xmlns="http://www.w3.org/2000/svg">
<g clip-path="url(#clip0_559_2562)">
<path d="M2.72003 0H19.6L19.84 0.12L19.96 0.28L20 0.4V17.28L19.88 17.56L19.6 17.72H8.32003V12.52L8.68003 12.12L9.04003 11.76L9.36003 11.48L10.04 10.8L10.32 10.48L10.72 10.08L11.04 9.8L11.72 9.12L12 8.8L12.4 8.4L12.72 8.12L13.2 7.6L13.4 7.4L13.8 7H13.88L13.92 10.04L14.08 10.32L14.24 10.44L14.36 10.48H14.64L14.92 10.32L15.04 10.12V5.32L14.88 5.08L14.68 4.96H9.88003L9.64003 5.12L9.52003 5.36V5.64L9.64003 5.88L9.96003 6.08L13 6.12L12.92 6.28L12.64 6.56L12.32 6.84L11.6 7.56L11.32 7.88L10.96 8.24L10.64 8.52L9.96003 9.2L9.68003 9.52L9.28003 9.92L8.96003 10.2L8.28003 10.88L8.00003 11.2L7.64003 11.56L7.48003 11.68H2.28003V0.4L2.44003 0.12L2.72003 0Z" fill="white"/>
<path d="M0.44 12.8799H6.24L6.16 13.0399L5.52 13.6399L4.96 14.1999L4.68 14.5199L4.28 14.9199L3.96 15.1999L3.28 15.8799L3 16.1999L2.8 16.5199V16.8399L2.92 17.0399L3.16 17.1999H3.48L3.76 17.0399L4.04 16.7599L4.36 16.4799L5.04 15.7999L5.32 15.4799L5.72 15.0799L6.04 14.7999L6.72 14.1199L7 13.7999L7.12 13.7599V19.5599L7 19.7999L6.88 19.9199L6.68 19.9999H0.4L0.16 19.8799L0.04 19.7199L0 19.5999V13.3199L0.12 13.0799L0.32 12.9199L0.44 12.8799Z" fill="white"/>
</g>
<defs>
<clipPath id="clip0_559_2562">
<rect width="20" height="20" fill="white"/>
</clipPath>
</defs>
</svg>
