<svg width="42" height="42" viewBox="0 0 42 42" fill="none" xmlns="http://www.w3.org/2000/svg">
<path d="M26.124 22.5962H35.532L36.036 22.9322L36.288 23.4362V32.0882L36.036 32.5922L35.616 32.9282L35.448 33.0122H26.208L25.704 32.6762L25.452 32.3402L25.368 32.0882V23.4362L25.704 22.8482L26.124 22.5962ZM27.132 23.9402L26.88 24.1922V31.3322L27.132 31.5842L27.3 31.6682H34.188L34.608 31.2482L34.44 30.8282L34.188 30.6602H28.308L28.728 29.9042L29.736 28.4762L29.988 28.1402L30.576 28.2242L30.912 28.3922L31.416 28.3082L31.668 28.1402L31.92 27.7202L32.844 26.6282L33.516 25.7882L33.768 25.7042L33.852 26.5442L34.104 26.8802L34.692 26.7962L34.776 26.6282V25.6202L34.608 24.2762L34.356 23.9402H33.516L31.92 24.1082L31.584 24.2762L31.5 24.6962L31.92 25.0322L32.76 24.9482L32.676 25.2842L31.752 26.3762L31.08 27.2162L30.66 27.1322L30.24 26.8802L29.652 26.9642L28.98 27.8882L28.056 29.2322L27.804 29.3162V24.1922L27.552 23.9402H27.132Z" fill="white"/>
<path d="M6.38405 22.5962H15.7921L16.3801 23.1002L16.5481 23.7722V31.8362L16.2961 32.5922L15.8761 32.9282L15.6241 33.0122H6.46805L5.88005 32.6762L5.62805 32.1722V23.3522L5.96405 22.8482L6.38405 22.5962ZM7.30805 23.9402L7.05605 24.1922L6.97205 24.3602V31.1642L7.22405 31.5842L7.39205 31.6682H14.3641L14.7001 31.4162L14.7841 31.0802L14.7001 30.8282L14.2801 30.6602H8.56805L8.82005 30.0722L9.74405 28.8122L10.2481 28.1402L10.8361 28.2242L11.0881 28.3922L11.5921 28.3082L12.5161 27.3002L13.2721 26.3762L13.7761 25.7882L13.9441 25.7042L14.0281 26.6282L14.2801 26.8802H14.7001L14.9521 26.6282L14.8681 25.1162L14.7841 24.2762L14.5321 23.9402H13.6081L12.1801 24.1082L11.7601 24.3602L11.8441 24.8642L12.2641 25.0322H12.9361L12.8521 25.3682L11.8441 26.5442L11.3401 27.2162L10.7521 27.1322L10.4161 26.8802H9.91205L9.40805 27.6362V27.8042H9.24005L8.31605 29.1482L7.98005 29.3162V24.1922L7.72805 23.9402H7.30805Z" fill="white"/>
<path d="M17.556 2.93994H26.964L27.636 3.27594L28.056 3.94794L28.14 4.28394V17.6399L27.804 18.4799L27.132 18.9839L26.712 19.0679H23.856V17.8079L23.94 17.7239L26.628 17.6399L26.796 17.5559V4.36794L26.628 4.19994L18.48 4.11594V5.96394L18.228 6.71994L17.472 7.39194L17.136 7.55994L16.632 7.64394H14.952L15.036 17.6399L17.976 17.7239L18.06 17.8079V19.0679H15.12L14.448 18.8159L13.86 18.0599L13.776 17.7239V6.71994L14.952 5.45994L16.716 3.69594L17.388 3.10794L17.556 2.93994Z" fill="white"/>
<path d="M20.328 7.56006H21.588L22.68 7.89606L23.52 8.40006L24.276 9.15606L24.78 10.2481L24.948 10.7521L25.032 11.8441L24.864 12.9361L24.276 14.1121L23.688 14.7841L22.764 15.3721L21.756 15.7081H20.076L19.152 15.3721L18.312 14.8681L17.64 14.1961L17.556 13.7761H17.388L16.968 12.6841L16.884 12.2641V11.0881L17.22 9.91206L17.892 8.82006L18.732 8.14806L19.404 7.81206L20.328 7.56006ZM20.748 8.73606L20.496 9.07206L20.412 9.32406L19.656 9.66006L19.236 10.0801L18.984 10.5001L19.152 11.2561L19.572 11.6761L19.908 11.9281L20.412 12.0961L21.756 12.3481L21.84 12.4321V12.8521L21.42 13.0201H20.328L19.404 12.7681L18.984 13.1041L19.068 13.5241L19.572 13.8601L20.16 14.0281H20.496L20.58 14.4481L20.832 14.6161L21.252 14.5321L21.42 14.0281L22.176 13.7761L22.596 13.4401L22.848 13.0201L22.932 12.6001L22.68 11.9281L22.092 11.4241L21.336 11.1721L20.328 11.0041L20.076 10.8361L19.992 10.5001L20.58 10.3321H21.42L22.26 10.5841L22.68 10.5001L22.848 10.3321L22.764 9.74406L21.924 9.40806L21.42 9.24006L21.252 8.82006L21.168 8.73606H20.748Z" fill="white"/>
<path d="M29.736 34.8599H30.24L30.576 35.1959V35.7839L29.736 36.4559L28.644 37.1279L27.048 37.9679L26.124 38.3039L23.688 38.8919L22.428 39.0599H19.488L17.724 38.8079L16.212 38.3879L15.456 38.2199L14.28 37.7159V37.7999V38.3879L14.028 38.6399L13.524 38.7239L12.852 38.1359L11.928 36.9599L11.172 35.9519V35.2799L11.676 35.0279H15.204L15.54 35.3639L15.456 35.9519L15.12 36.2039L14.532 36.2879L16.128 36.9599L17.724 37.4639L19.068 37.7159L19.908 37.7999H22.008L23.772 37.5479L25.032 37.2119L26.628 36.6239L28.56 35.6159L29.064 35.1959L29.736 34.8599Z" fill="white"/>
<path d="M11.592 11.4238H12.18L12.516 11.7598V12.4318L11.256 14.9518L11.004 15.2038H10.416L10.08 14.8678L9.99604 14.5318L8.98804 15.7078L8.23204 16.7998L7.64404 17.7238L6.97204 19.1518L6.38404 21.1678L6.13204 21.5878L5.54404 21.6718L5.12404 21.4198L5.04004 20.9158L5.54404 19.1518L6.21604 17.6398L7.39204 15.5398L8.23204 14.4478L9.32404 13.3558L8.73604 13.1878L8.48404 12.8518L8.56804 12.1798L9.07204 11.9278L11.592 11.4238Z" fill="white"/>
<path d="M29.7361 11.1719L30.2401 11.2559L31.3321 12.0959L31.7521 12.5159L32.9281 13.6919L33.5161 14.3639L34.2721 15.3719L34.7761 16.2119L35.4481 17.6399L35.6161 17.8919L35.8681 17.6399H36.7081L36.9601 18.0599L36.7921 19.6559L36.6241 20.9159L36.3721 21.3359L36.2881 21.4199H35.6161L35.1961 21.0839L34.9441 20.8319L34.2721 20.2439L33.4321 19.4879L33.3481 18.8999L33.6841 18.4799H34.3561L34.1881 17.9759L33.6841 17.0519L32.6761 15.5399L31.9201 14.6159L31.2481 13.8599L30.5761 13.2719L29.4001 12.3479L29.2321 12.1799V11.5079L29.4841 11.2559L29.7361 11.1719Z" fill="white"/>
<path d="M19.068 16.3799L19.656 16.4639L20.496 16.6319H21.336L22.512 16.3799H22.848V22.3439L22.512 22.2599L21.168 20.9159H20.748L19.32 22.3439L18.984 22.2599V16.4639L19.068 16.3799Z" fill="white"/>
</svg>
