<svg width="42" height="42" viewBox="0 0 42 42" fill="none" xmlns="http://www.w3.org/2000/svg">
<path d="M3.69605 7.81201H38.3041L39.0601 8.14801L39.5641 8.48401L40.0681 9.24001L40.2361 9.66001L40.3201 10.164V10.836L40.1521 11.592L39.7321 12.264L38.9761 12.936L38.3041 13.188L31.3321 13.272L31.6681 14.196L33.0961 17.388L34.2721 19.992L34.7761 21.168L34.9441 21.84L36.1201 21.756L37.2121 21.924L38.2201 22.344L39.0601 23.016L39.8161 24.108L40.1521 24.948L40.3201 25.872V26.712L40.0681 27.888L39.4801 28.98L38.9761 29.568L38.0521 30.24L37.1281 30.576L36.2041 30.744H35.2801L34.2721 30.492L33.4321 30.072L32.5921 29.316L32.0041 28.56L31.6681 27.804L31.5001 26.964V25.368L31.7521 24.36L32.2561 23.52L32.5921 23.1L33.1801 22.596L32.0881 20.16L31.6681 19.236L31.2481 18.06L30.4921 16.464L29.2321 13.608L29.0641 13.272L25.4521 13.188V25.368L26.3761 25.62L27.3841 26.208L27.9721 26.88L28.4761 27.72L28.8121 28.56L28.8961 29.064V30.408L28.6441 31.332L28.1401 32.34L27.5521 33.096L26.7961 33.684L25.7041 34.104L25.3681 34.188H23.6881L22.5961 33.852L21.6721 33.264L20.9161 32.424L20.4121 31.584L20.0761 30.492V28.98L20.3281 28.14L20.8321 27.216L21.4201 26.46L22.3441 25.788L23.1001 25.452L23.6041 25.368V13.188H18.3961V25.368L19.0681 25.536L19.7401 25.872L19.6561 26.292L19.1521 27.132L18.7321 28.056L18.5641 28.812V30.744L18.9841 32.088L19.4881 33.012L19.7401 33.348V33.684L18.7321 34.104L18.3961 34.188H16.7161L15.6241 33.852L14.7841 33.348L14.1961 32.844L13.8601 32.34L13.2721 31.332L13.1041 30.744V28.98L13.3561 28.14L13.9441 27.048L14.7841 26.124L15.6241 25.62L16.3801 25.368H16.5481V13.188H11.4241V25.368L12.2641 25.62L12.7681 25.872L12.6841 26.208L12.1801 26.964L11.6761 28.308L11.5081 29.484L11.5921 30.828L11.9281 31.92L12.5161 33.096L12.7681 33.432L12.6001 33.768L11.4241 34.188H9.74405L8.65205 33.852L7.81205 33.348L7.14005 32.76L6.38405 31.584L6.13205 30.828L6.04805 30.408V29.232L6.30005 28.14L6.80405 27.216L7.39205 26.46L8.31605 25.788L9.07205 25.452L9.57605 25.368V13.188H3.69605L2.68805 12.684L2.01605 11.928L1.68005 11.088V9.91201L2.01605 9.07201L2.77205 8.23201L3.69605 7.81201Z" fill="white"/>
</svg>
