<svg width="31" height="31" viewBox="0 0 31 31" fill="none" xmlns="http://www.w3.org/2000/svg">
<circle cx="15.5" cy="15.5" r="15.5" fill="#0892D0"/>
<path d="M14.4721 18.8054V13.0676H15.2884C15.9535 13.0676 16.5279 12.9486 17.0116 12.7108C17.5155 12.4532 17.8984 12.1063 18.1605 11.6703C18.4426 11.2144 18.5837 10.6892 18.5837 10.0946C18.5837 9.5 18.4527 8.98468 18.1907 8.54865C17.9287 8.11261 17.5558 7.77568 17.0721 7.53784C16.5884 7.3 16.014 7.18108 15.3488 7.18108C14.4822 7.18108 13.7062 7.41892 13.0209 7.89459C12.3558 8.35045 11.8217 9.03423 11.4186 9.94595L9 7.98378C9.60465 6.6955 10.4713 5.71441 11.6 5.04054C12.7488 4.34685 14.0589 4 15.5302 4C16.8 4 17.9186 4.24775 18.886 4.74324C19.8736 5.23874 20.6395 5.93243 21.1837 6.82432C21.7279 7.6964 22 8.70721 22 9.85676C22 10.927 21.7581 11.8784 21.2744 12.7108C20.8109 13.5432 20.1457 14.2369 19.2791 14.7919C18.4124 15.3468 17.3845 15.7333 16.1953 15.9514L16.9209 15.223L17.6465 14.4946L17.3442 18.8054H14.4721ZM15.893 26C15.2481 26 14.714 25.7919 14.2907 25.3757C13.8876 24.9396 13.686 24.4144 13.686 23.8C13.686 23.1658 13.8876 22.6405 14.2907 22.2243C14.714 21.8081 15.2481 21.6 15.893 21.6C16.538 21.6 17.062 21.8081 17.4651 22.2243C17.8884 22.6405 18.1 23.1658 18.1 23.8C18.1 24.4144 17.8884 24.9396 17.4651 25.3757C17.062 25.7919 16.538 26 15.893 26Z" fill="white"/>
</svg>
