<svg width="50" height="45" viewBox="0 0 50 45" fill="none" xmlns="http://www.w3.org/2000/svg">
<path d="M10.9411 37.3058C10.0231 37.3058 9.21054 37.0216 8.56684 36.5446C7.16338 35.5197 6.55134 33.6219 7.36387 31.9373L9.05225 29.1363L19.0453 12.4929C20.1006 10.7271 22.2744 10.1994 24.005 10.8895C24.7542 11.1939 25.419 11.7217 25.8833 12.4929L25.9994 12.6959C24.6698 12.361 23.1608 12.7568 22.2427 13.9036C22.2111 13.9239 22.1794 13.9442 22.1583 13.9645L13.2204 28.8522C13.1782 28.9232 13.136 29.0044 13.0938 29.0754L11.2471 32.1504C10.9517 32.6477 10.7934 33.1652 10.7723 33.6828C10.6668 35.5501 12.1969 37.3159 14.3495 37.3159" fill="url(#paint0_linear_46_1461)"/>
<path d="M39.2109 37.3058C39.1582 37.3058 39.1054 37.3058 39.0526 37.3058H39.2109Z" fill="url(#paint1_linear_46_1461)"/>
<path d="M38.9155 32.2214C38.2718 32.6984 37.4487 32.9927 36.5201 32.9927H36.3407C37.3221 32.0388 37.7019 30.5672 37.111 29.2276C37.0477 29.0957 36.9844 28.9638 36.9 28.8319L26.1682 10.9301C26.0943 10.7982 25.9994 10.6764 25.9149 10.5546C25.6828 10.2501 25.4084 10.0066 25.1024 9.80361C23.4879 8.72788 21.1136 9.08307 19.9951 10.859L21.5885 8.21031C22.0633 7.41873 22.7598 6.88087 23.5301 6.58657C25.2501 5.92692 27.3712 6.47493 28.4053 8.21031L29.8299 10.5749L40.224 27.8779C40.8571 29.4915 40.2345 31.2472 38.9155 32.2214Z" fill="url(#paint2_linear_46_1461)"/>
<path d="M35.4965 28.5376H31.5288L22.8337 14.0558C22.707 13.8427 22.4327 13.7818 22.2216 13.8934C23.1397 12.7466 24.6487 12.3509 25.9783 12.6858L35.4965 28.5376Z" fill="url(#paint3_linear_46_1461)"/>
<path d="M15.9957 33.9974C14.4234 33.8655 13.231 32.7999 12.8511 31.4704L22.3799 15.5882L24.3637 18.8864L15.6791 33.3479C15.5314 33.6219 15.7002 33.9467 15.9957 33.9974Z" fill="url(#paint4_linear_46_1461)"/>
<path d="M42.9676 34.0075C42.7249 35.7429 41.2475 37.2347 39.2109 37.3058H16.1751C14.0646 37.3058 12.5134 35.7835 12.2602 34.0075C12.1547 33.2261 12.2918 32.3939 12.7561 31.6227L12.8406 31.4704C13.2204 32.7897 14.4129 33.8655 15.9852 33.9974C16.0063 33.9974 16.0379 34.0075 16.059 34.0075H16.0801C16.1118 34.0075 16.1435 34.0075 16.1751 34.0075C16.2173 34.0075 16.2595 34.0075 16.3017 34.0075H37.7336C37.8075 34.0075 37.8813 34.0075 37.9446 33.9974C38.4512 33.9669 38.926 33.8452 39.3481 33.6422C40.9415 32.8709 41.7752 30.9935 41.0681 29.2987L42.4611 31.6227C42.9254 32.3939 43.0731 33.2261 42.9676 34.0075Z" fill="url(#paint5_linear_46_1461)"/>
<path d="M36.3512 32.9927H17.2831L19.267 29.6945H36.6256C36.9738 29.6945 37.1849 29.3393 37.016 29.045L37.1216 29.2276C37.7125 30.5672 37.3221 32.0388 36.3512 32.9927Z" fill="url(#paint6_linear_46_1461)"/>
<defs>
<linearGradient id="paint0_linear_46_1461" x1="13.3066" y1="35.2817" x2="22.9141" y2="4.6021" gradientUnits="userSpaceOnUse">
<stop stop-color="#0892D0"/>
<stop offset="1" stop-color="#162A69"/>
</linearGradient>
<linearGradient id="paint1_linear_46_1461" x1="-nan" y1="-nan" x2="-nan" y2="-nan" gradientUnits="userSpaceOnUse">
<stop stop-color="#0892D0"/>
<stop offset="1" stop-color="#162A69"/>
</linearGradient>
<linearGradient id="paint2_linear_46_1461" x1="38.6493" y1="35.8702" x2="26.5763" y2="4.07808" gradientUnits="userSpaceOnUse">
<stop stop-color="#0892D0"/>
<stop offset="1" stop-color="#162A69"/>
</linearGradient>
<linearGradient id="paint3_linear_46_1461" x1="12.2304" y1="6.41717" x2="24.7413" y2="40.8454" gradientUnits="userSpaceOnUse">
<stop stop-color="#0892D0"/>
<stop offset="1" stop-color="#162A69"/>
</linearGradient>
<linearGradient id="paint4_linear_46_1461" x1="11.0336" y1="34.986" x2="21.4464" y2="2.61376" gradientUnits="userSpaceOnUse">
<stop stop-color="#0892D0"/>
<stop offset="1" stop-color="#162A69"/>
</linearGradient>
<linearGradient id="paint5_linear_46_1461" x1="42.2166" y1="21.8153" x2="8.1829" y2="21.8153" gradientUnits="userSpaceOnUse">
<stop stop-color="#0892D0"/>
<stop offset="1" stop-color="#162A69"/>
</linearGradient>
<linearGradient id="paint6_linear_46_1461" x1="18.0686" y1="31.0185" x2="37.0299" y2="31.0185" gradientUnits="userSpaceOnUse">
<stop stop-color="#0892D0"/>
<stop offset="1" stop-color="#162A69"/>
</linearGradient>
</defs>
</svg>
