<svg width="28" height="25" viewBox="0 0 28 25" fill="none" xmlns="http://www.w3.org/2000/svg">
<path fill-rule="evenodd" clip-rule="evenodd" d="M16.8485 13.4388C16.6894 13.4504 15.8674 13.4979 14.0338 13.4979C12.5754 13.4979 11.5399 13.4555 11.1767 13.4388C5.5406 13.1985 1.33378 12.2475 1.33378 11.1088C1.33378 9.97019 5.5406 9.02046 11.1767 8.77628V12.4916C11.5452 12.5173 12.6006 12.5778 14.059 12.5778C15.8091 12.5778 16.6854 12.5071 16.8432 12.4929V8.77885C22.4674 9.02174 26.6649 9.97276 26.6649 11.1088C26.6649 12.2449 22.4687 13.1959 16.8432 13.4375L16.8485 13.4388ZM16.8485 8.39459V5.06991H24.6974V0H3.32781V5.06991H11.1753V8.39331C4.79682 8.67733 0 9.90207 0 11.3697C0 12.8374 4.79682 14.0608 11.1753 14.3461V25H16.8472V14.3423C23.2111 14.0582 28 12.8348 28 11.3684C28 9.90207 23.2151 8.67861 16.8472 8.39331L16.8485 8.39459Z" fill="white"/>
</svg>
