<svg width="46" height="46" viewBox="0 0 46 46" fill="none" xmlns="http://www.w3.org/2000/svg">
<path d="M23 46C35.7459 46 46 35.7459 46 23C46 10.2541 35.7459 0 23 0C10.2541 0 0 10.2541 0 23C0 35.7459 10.2541 46 23 46Z" fill="#2775CA"/>
<path d="M29.325 26.6416C29.325 23.2875 27.3125 22.1375 23.2875 21.6584C20.4125 21.275 19.8375 20.5084 19.8375 19.1666C19.8375 17.8248 20.7959 16.9625 22.7125 16.9625C24.4375 16.9625 25.3959 17.5375 25.875 18.975C25.9709 19.2625 26.2584 19.4541 26.5459 19.4541H28.0791C28.4625 19.4541 28.75 19.1666 28.75 18.7834V18.6875C28.3666 16.5791 26.6416 14.95 24.4375 14.7584V12.4584C24.4375 12.075 24.15 11.7875 23.6709 11.6916H22.2334C21.85 11.6916 21.5625 11.9791 21.4666 12.4584V14.6625C18.5916 15.0459 16.7709 16.9625 16.7709 19.3584C16.7709 22.5209 18.6875 23.7666 22.7125 24.2459C25.3959 24.725 26.2584 25.3 26.2584 26.8334C26.2584 28.3668 24.9166 29.4209 23.0959 29.4209C20.6041 29.4209 19.7416 28.3666 19.4541 26.9291C19.3584 26.5459 19.0709 26.3541 18.7834 26.3541H17.1541C16.7709 26.3541 16.4834 26.6416 16.4834 27.025V27.1209C16.8666 29.5166 18.4 31.2416 21.5625 31.7209V34.0209C21.5625 34.4041 21.85 34.6916 22.3291 34.7875H23.7666C24.15 34.7875 24.4375 34.5 24.5334 34.0209V31.7209C27.4084 31.2416 29.325 29.2291 29.325 26.6416Z" fill="white"/>
<path d="M18.1125 36.7041C10.6375 34.0209 6.80407 25.6834 9.58339 18.3041C11.0209 14.2791 14.1834 11.2125 18.1125 9.77499C18.4959 9.5834 18.6875 9.2959 18.6875 8.81658V7.47499C18.6875 7.09158 18.4959 6.80408 18.1125 6.7084C18.0166 6.7084 17.825 6.7084 17.7291 6.80408C8.62498 9.67908 3.64157 19.3584 6.51657 28.4625C8.24157 33.8291 12.3625 37.95 17.7291 39.675C18.1125 39.8666 18.4959 39.675 18.5916 39.2916C18.6875 39.1959 18.6875 39.1 18.6875 38.9084V37.5666C18.6875 37.2791 18.4 36.8959 18.1125 36.7041ZM28.2709 6.80408C27.8875 6.61249 27.5041 6.80408 27.4084 7.18749C27.3125 7.2834 27.3125 7.37908 27.3125 7.5709V8.91249C27.3125 9.2959 27.6 9.67908 27.8875 9.8709C35.3625 12.5541 39.1959 20.8916 36.4166 28.2709C34.9791 32.2959 31.8166 35.3625 27.8875 36.8C27.5041 36.9916 27.3125 37.2791 27.3125 37.7584V39.1C27.3125 39.4834 27.5041 39.7709 27.8875 39.8666C27.9834 39.8666 28.175 39.8666 28.2709 39.7709C37.375 36.8959 42.3584 27.2166 39.4834 18.1125C37.7584 12.65 33.5416 8.52908 28.2709 6.80408Z" fill="white"/>
</svg>
