<svg width="820" height="356" viewBox="0 0 820 356" fill="none" xmlns="http://www.w3.org/2000/svg">
<circle cx="410" cy="178" r="28.5" fill="#1E1E48" stroke="#162A69"/>
<mask id="path-2-inside-1_383_364" fill="white">
<path fill-rule="evenodd" clip-rule="evenodd" d="M12 0C5.37258 0 0 5.37258 0 12V160C0 166.627 5.37257 172 12 172H377.544C380.366 156.639 393.824 145 410 145C426.176 145 439.634 156.639 442.456 172H808C814.627 172 820 166.627 820 160V12C820 5.37258 814.627 0 808 0H12Z"/>
</mask>
<path fill-rule="evenodd" clip-rule="evenodd" d="M12 0C5.37258 0 0 5.37258 0 12V160C0 166.627 5.37257 172 12 172H377.544C380.366 156.639 393.824 145 410 145C426.176 145 439.634 156.639 442.456 172H808C814.627 172 820 166.627 820 160V12C820 5.37258 814.627 0 808 0H12Z" fill="#1E1E49" fill-opacity="0.92"/>
<path d="M377.544 172V173H378.377L378.528 172.181L377.544 172ZM442.456 172L441.472 172.181L441.623 173H442.456V172ZM1 12C1 5.92486 5.92487 1 12 1V-1C4.8203 -1 -1 4.82029 -1 12H1ZM1 160V12H-1V160H1ZM12 171C5.92486 171 1 166.075 1 160H-1C-1 167.18 4.82029 173 12 173V171ZM377.544 171H12V173H377.544V171ZM378.528 172.181C381.264 157.286 394.315 146 410 146V144C393.332 144 379.468 155.993 376.561 171.819L378.528 172.181ZM410 146C425.685 146 438.736 157.286 441.472 172.181L443.439 171.819C440.532 155.993 426.668 144 410 144V146ZM808 171H442.456V173H808V171ZM819 160C819 166.075 814.075 171 808 171V173C815.18 173 821 167.18 821 160H819ZM819 12V160H821V12H819ZM808 1C814.075 1 819 5.92487 819 12H821C821 4.8203 815.18 -1 808 -1V1ZM12 1H808V-1H12V1Z" fill="#162A69" mask="url(#path-2-inside-1_383_364)"/>
<mask id="path-4-inside-2_383_364" fill="white">
<path fill-rule="evenodd" clip-rule="evenodd" d="M377.544 184H12C5.37258 184 0 189.373 0 196V344C0 350.627 5.37257 356 12 356H808C814.627 356 820 350.627 820 344V196C820 189.373 814.627 184 808 184H442.456C439.634 199.361 426.176 211 410 211C393.824 211 380.366 199.361 377.544 184Z"/>
</mask>
<path fill-rule="evenodd" clip-rule="evenodd" d="M377.544 184H12C5.37258 184 0 189.373 0 196V344C0 350.627 5.37257 356 12 356H808C814.627 356 820 350.627 820 344V196C820 189.373 814.627 184 808 184H442.456C439.634 199.361 426.176 211 410 211C393.824 211 380.366 199.361 377.544 184Z" fill="#1E1E49" fill-opacity="0.92"/>
<path d="M377.544 184L378.528 183.819L378.377 183H377.544V184ZM442.456 184V183H441.623L441.472 183.819L442.456 184ZM12 185H377.544V183H12V185ZM1 196C1 189.925 5.92487 185 12 185V183C4.8203 183 -1 188.82 -1 196H1ZM1 344V196H-1V344H1ZM12 355C5.92486 355 1 350.075 1 344H-1C-1 351.18 4.82029 357 12 357V355ZM808 355H12V357H808V355ZM819 344C819 350.075 814.075 355 808 355V357C815.18 357 821 351.18 821 344H819ZM819 196V344H821V196H819ZM808 185C814.075 185 819 189.925 819 196H821C821 188.82 815.18 183 808 183V185ZM442.456 185H808V183H442.456V185ZM441.472 183.819C438.736 198.714 425.685 210 410 210V212C426.668 212 440.532 200.007 443.439 184.181L441.472 183.819ZM410 210C394.315 210 381.264 198.714 378.528 183.819L376.561 184.181C379.468 200.007 393.332 212 410 212V210Z" fill="#162A69" mask="url(#path-4-inside-2_383_364)"/>
<path d="M410 189.563C409.763 189.563 409.525 189.475 409.338 189.288L401.75 181.7C401.388 181.338 401.388 180.738 401.75 180.375C402.113 180.013 402.713 180.013 403.075 180.375L410 187.3L416.925 180.375C417.288 180.013 417.888 180.013 418.25 180.375C418.613 180.738 418.613 181.338 418.25 181.7L410.663 189.288C410.475 189.475 410.238 189.563 410 189.563Z" fill="white"/>
<path d="M410 189.35C409.488 189.35 409.062 188.925 409.062 188.412V167.375C409.062 166.863 409.488 166.438 410 166.438C410.512 166.438 410.938 166.863 410.938 167.375V188.412C410.938 188.925 410.512 189.35 410 189.35Z" fill="white"/>
</svg>
