<svg width="58" height="58" viewBox="0 0 58 58" fill="none" xmlns="http://www.w3.org/2000/svg">
<path d="M0 8C0 3.58172 3.58172 0 8 0H50C54.4183 0 58 3.58172 58 8V50C58 54.4183 54.4183 58 50 58H8C3.58172 58 0 54.4183 0 50V8Z" fill="#0892D0"/>
<path d="M20.3114 23.2907L20.9684 23.9303C21.6082 24.57 22.2566 25.201 22.879 25.8579C23.0968 26.0774 23.2412 26.3591 23.2923 26.664C23.3434 26.969 23.2987 27.2823 23.1643 27.5608C23.034 27.8415 22.8229 28.077 22.558 28.2371C22.2931 28.3973 21.9865 28.4748 21.6773 28.4598C21.2191 28.4425 20.8647 28.2177 20.5448 27.8979C18.98 26.3247 17.4066 24.7601 15.8418 23.1783C15.5738 22.9103 15.2799 22.6165 15.1329 22.2793C14.8649 21.6743 15.0119 21.0951 15.4873 20.6197C17.1876 18.9082 18.8964 17.2025 20.614 15.5025C21.2537 14.8628 22.1701 14.8369 22.8012 15.4074C23.4323 15.9779 23.4928 16.9892 22.8444 17.6548C22.196 18.3204 21.3488 19.1589 20.6053 19.9023L20.346 20.1789H37.1869C38.1379 20.1789 38.8295 20.8358 38.8382 21.7175C38.8412 22.1143 38.6926 22.4972 38.4226 22.7881C38.1526 23.0789 37.7817 23.2556 37.3857 23.282H20.3114V23.2907Z" fill="white"/>
<path d="M37.7143 34.6747L36.8584 33.8535L35.2158 32.2025C34.5501 31.5283 34.5328 30.5861 35.164 29.9551C35.7951 29.3241 36.7287 29.35 37.3944 29.9983L42.5297 35.1155C42.6792 35.2604 42.798 35.4341 42.8788 35.626C42.9596 35.8179 43.0008 36.0242 43 36.2324C42.9992 36.4406 42.9564 36.6466 42.8741 36.8379C42.7918 37.0291 42.6717 37.2018 42.5211 37.3456C40.8179 39.0571 39.1062 40.7686 37.3944 42.4628C36.7287 43.1198 35.7864 43.1284 35.164 42.5061C34.5415 41.8837 34.5501 40.9329 35.2158 40.2586C35.8815 39.5844 36.6769 38.7892 37.4117 38.0631L37.6624 37.7865H20.8215C19.8619 37.7865 19.1616 37.1122 19.1702 36.2133C19.1761 35.8211 19.3298 35.4455 19.6007 35.1618C19.8716 34.8781 20.2397 34.7072 20.6313 34.6833C20.7437 34.6747 20.8647 34.6833 20.9857 34.6833H37.7143V34.6747Z" fill="white"/>
</svg>
