<svg width="125" height="1005" viewBox="0 0 125 1005" fill="none" xmlns="http://www.w3.org/2000/svg">
<path d="M56.6999 1005L57.3316 745.568C57.3693 730.078 44.8223 717.5 29.3317 717.5H27.7999C24.4844 717.713 21.1604 717.244 18.0334 716.122C14.9063 714.999 12.0426 713.248 9.61917 710.975C7.19576 708.702 5.26415 705.957 3.94366 702.908C2.62318 699.859 1.94189 696.572 1.94189 693.25C1.94189 689.928 2.62318 686.641 3.94366 683.592C5.26415 680.543 7.19576 677.798 9.61917 675.525C12.0426 673.252 14.9063 671.501 18.0334 670.378C21.1604 669.256 24.4844 668.787 27.7999 669H29.2698C44.7845 669 57.3414 656.385 57.2695 640.87L56.0304 373.73C55.9584 358.215 68.5154 345.6 84.0301 345.6H97.7999C104.466 345.574 110.85 342.907 115.554 338.184C120.259 333.461 122.9 327.066 122.9 320.4V318.9C122.874 312.251 120.221 305.882 115.519 301.181C110.818 296.479 104.449 293.826 97.7999 293.8H83.9763C68.4825 293.8 55.9342 281.217 55.9764 265.724L56.6999 0" stroke="#AFACAC" stroke-width="3" stroke-miterlimit="10"/>
</svg>
