<svg width="24" height="24" viewBox="0 0 24 24" fill="none" xmlns="http://www.w3.org/2000/svg">
<path d="M11.952 4.46411L12.24 4.56011L13.296 5.13611L14.256 5.56811L15.6 6.04811L16.608 6.28811L18.336 6.67211L18.384 9.26411L18.336 11.0881L18.192 12.6241L18 13.7761L17.856 14.4961L17.616 15.2641L17.328 15.9841L16.8 16.9921L16.32 17.6641L16.128 17.9041H16.032L15.936 18.0961L15.6 18.4801L15.072 18.9601L14.304 19.4881L13.632 19.8721L12.48 20.3521L12.096 20.4961L11.76 20.4481L10.704 20.0161L9.93603 19.6321L9.40803 19.2961L8.83203 18.8641L8.25603 18.3361L7.96803 18.0001V17.9041L7.77603 17.8081L7.20003 16.9921L6.62403 15.8881L6.28803 14.9761L6.09603 14.3521L5.90403 13.2481L5.71203 11.7601L5.66403 11.0881L5.61603 8.64011L5.66403 6.67211L7.39203 6.28811L8.54403 6.00011L9.74403 5.56811L11.088 4.94411L11.952 4.46411ZM16.32 7.82411L16.08 7.96811L15.888 8.16011L15.744 8.40011L15.36 8.78411L15.024 9.16811L14.592 9.64811L14.352 9.60011L14.064 9.26411L13.392 8.83211L12.72 8.59211L12.24 8.49611H11.568L10.848 8.64011L10.032 9.02411L9.55203 9.45611L9.21603 9.79211V9.88811L9.07203 9.93611L8.78403 10.4161L8.54403 11.0881L8.44803 11.5681V12.2881L8.59203 12.9601L8.88003 13.6321L9.21603 14.1121L9.45603 14.3521L9.93603 14.7841L10.704 15.1681L11.424 15.3601H12.336L13.056 15.1681L13.824 14.7841L14.352 14.3521L14.448 14.1121L14.64 14.0161L15.024 13.3441L15.264 12.6241L15.312 12.3841V11.5201L15.216 11.0401H15.12L14.784 11.4241L14.4 11.8561L14.016 12.1921L13.68 12.6241L13.008 13.3441L12.576 13.8241L12.336 14.0641L12 14.3521H11.664L11.184 13.8721L10.848 13.5841L10.512 13.2001L10.128 12.8161L9.98403 12.5281L10.032 12.1921L10.08 12.1441H10.56L11.328 12.9121L11.664 13.2961L11.808 13.4401L12 13.3441L12.576 12.6721L12.912 12.3361L13.152 12.0961L13.872 11.3281L14.304 10.8001L14.928 10.1281L15.168 9.88811L15.504 9.55211L15.84 9.16811L16.128 8.83211L16.464 8.44811L16.656 8.20811L16.704 8.06411L16.608 7.87211L16.32 7.82411ZM9.79203 16.6081L9.55203 16.8001V17.0401L9.79203 17.2321H14.352L14.592 17.0401V16.8001L14.352 16.6081H9.79203Z" fill="white"/>
<path d="M3.12001 5.76001H3.45601L3.69601 6.00001L3.88801 6.48001L3.98401 6.91201L4.41601 8.11201V8.40001L4.27201 8.59201L3.98401 8.64001L3.74401 8.49601L3.50401 7.92001L3.21601 7.15201L3.07201 7.29601L2.59201 8.30401L2.25601 9.31201L2.01601 10.368L1.92001 11.136V12.864L2.06401 13.92L2.40001 15.168L2.73601 16.032L3.21601 16.944L3.64801 17.664L4.03201 18.192L4.56001 18.816L5.37601 19.632L6.00001 20.112L6.72001 20.592L7.58401 21.072L8.30401 21.408L9.31201 21.744L10.368 21.984L10.704 22.032H13.296L14.112 21.888L15.312 21.552L16.224 21.168L17.136 20.688L17.76 20.304L18.096 20.352L18.24 20.544V20.88L18 21.12H17.904V21.216L17.136 21.648L16.656 21.888L15.888 22.176L15.264 22.416L14.112 22.704L13.2 22.848L12.576 22.896H11.424L10.416 22.8L9.26401 22.56L8.16001 22.224L7.53601 21.936L7.10401 21.792L6.09601 21.216V21.12L5.85601 21.024L5.28001 20.592L4.65601 20.064L4.27201 19.728V19.632L4.08001 19.536L3.64801 19.008L3.21601 18.48L2.88001 18V17.904H2.78401L2.30401 17.04L2.11201 16.656L1.82401 15.888L1.63201 15.408L1.34401 14.352L1.15201 13.2L1.10401 12.624V11.424L1.20001 10.416L1.44001 9.26401L1.72801 8.30401L2.06401 7.53601L2.25601 7.05601L2.30401 6.91201L1.24801 7.29601L0.960005 7.24801L0.768005 7.00801L0.816005 6.67201L0.960005 6.52801L1.82401 6.19201L2.59201 5.95201L3.12001 5.76001Z" fill="white"/>
<path d="M11.424 1.104H12.624L13.872 1.248L15.072 1.536L15.84 1.776L16.464 2.064L16.848 2.208L17.76 2.688L17.904 2.784V2.88L18.144 2.976L18.72 3.408L19.344 3.936L19.728 4.272V4.368L19.872 4.416L20.208 4.8L20.832 5.568L21.12 6V6.096H21.216L21.696 6.96L21.888 7.344L22.176 8.112L22.368 8.592L22.656 9.648L22.848 10.8L22.896 11.376V12.576L22.8 13.584L22.56 14.736L22.272 15.696L21.936 16.464L21.744 16.944L21.696 17.088L22.752 16.704L23.04 16.752L23.232 16.992L23.184 17.328L23.04 17.472L22.176 17.808L20.88 18.24H20.544L20.304 18L20.112 17.52L20.016 17.088L19.584 15.888V15.6L19.728 15.408L20.016 15.36L20.256 15.504L20.496 16.08L20.784 16.848L20.928 16.704L21.408 15.696L21.744 14.688L21.984 13.632L22.032 13.296V10.704L21.888 9.888L21.552 8.688L21.168 7.776L20.688 6.864L20.208 6.144L19.824 5.616L19.248 4.992L18.624 4.368L18 3.888L17.28 3.408L16.416 2.928L15.696 2.592L14.688 2.256L13.632 2.016L12.864 1.92H11.088L10.08 2.064L8.83201 2.4L7.87201 2.784L6.86401 3.312L6.24001 3.696L5.90401 3.648L5.76001 3.456V3.12L6.00001 2.88H6.09601V2.784L6.96001 2.304L7.34401 2.112L8.11201 1.824L8.73601 1.584L9.88801 1.296L10.8 1.152L11.424 1.104Z" fill="white"/>
</svg>
