<svg width="24" height="24" viewBox="0 0 24 24" fill="none" xmlns="http://www.w3.org/2000/svg">
<path d="M15.264 6.71997H19.44L19.872 7.39197L20.16 7.91997L20.592 8.49597L21.168 9.40797L21.744 10.32L22.224 11.232L22.752 12.432L22.944 13.152L22.992 13.728L22.896 14.64L22.656 15.408L22.32 16.08L21.936 16.608L21.792 16.848L21.216 17.424L20.544 17.904L19.536 18.384L18.72 18.624L18.144 18.72L17.136 18.768L16.224 18.672L16.128 18.624L16.032 17.904L15.744 17.808L13.968 16.992L13.008 16.56L12.816 16.176L12.432 15.216H12.192L11.664 15.792L11.616 15.888L11.328 15.84L11.136 15.648L11.52 15.168L11.904 14.448L12.048 14.016L12.096 13.584V12.576L12 11.952L11.808 11.472L11.904 11.28L12.288 10.944L12.768 10.512L13.296 10.08L13.824 9.64797L14.304 9.16797L14.352 9.02397L14.112 8.78397L14.064 8.59197L14.592 7.72797L15.072 7.00797L15.264 6.71997ZM17.232 9.16797L17.088 9.40797V10.368L16.752 10.416L16.32 10.656L15.936 11.04L15.792 11.472V12.048L15.984 12.432L16.416 12.768L17.616 13.344L18 13.536L18.336 13.824L18.384 13.92V14.352L18.24 14.64L17.904 14.928L17.616 15.024H17.04L16.608 14.832L16.32 14.496L16.176 13.968L16.08 13.872L15.84 13.92L15.792 14.016V14.4L15.936 14.832L16.176 15.12L16.608 15.408L16.896 15.504H17.088V16.512L17.28 16.752L17.472 16.704L17.568 16.608L17.616 15.552L18.096 15.408L18.576 15.024L18.864 14.544L18.912 14.4V13.872L18.624 13.392L18.096 13.008L16.752 12.384L16.464 12.192L16.272 11.952V11.52L16.464 11.184L16.704 10.992L17.136 10.848H17.568L17.952 10.992L18.288 11.28L18.384 11.52L18.48 11.904L18.576 12H18.816L18.912 11.856V11.52L18.72 11.04L18.288 10.608L17.808 10.368L17.616 10.32L17.568 9.26397L17.472 9.16797H17.232Z" fill="white"/>
<path d="M8.44796 6.62402H9.31196L9.88796 6.76802L10.752 7.24802L11.856 7.92002L12.048 8.06402L12.384 8.20802L13.728 9.02402L13.68 9.21602L13.104 9.74402L12.48 10.224L12.096 10.56H5.66396L5.03996 9.98402L4.75196 9.79202L4.17596 9.26402L4.07996 9.21602L4.12796 8.97602L5.47196 8.16002L6.04796 7.87202L6.47996 7.58402L7.53596 6.96002L8.06396 6.72002L8.44796 6.62402ZM8.06396 7.72802L7.87196 7.87202V8.97602L8.78396 9.88802L8.92796 9.93602L9.31196 9.60002L9.93596 8.97602L9.98396 8.88002V7.92002L9.79196 7.72802H8.06396Z" fill="white"/>
<path d="M12.9599 17.0879L13.2959 17.1359L14.3039 17.6159L15.2639 18.0479L15.5999 18.1919L15.7919 18.8159L16.0319 19.9679L16.3199 21.1199V21.2639H10.1759L10.1279 21.2159L9.98394 19.8719L9.88794 19.0559L10.2719 18.2879L10.3679 18.2399L10.7519 19.2479L10.9439 19.3439L11.2799 19.0559L11.7119 18.5279L12.1919 17.9999L12.6239 17.4719L12.9599 17.0879Z" fill="white"/>
<path d="M4.65604 17.0879L4.89604 17.1359L5.32804 17.6159L5.76004 18.1439L6.19204 18.6239L6.62404 19.1519L6.86404 19.3439L7.05604 19.2479L7.44004 18.2879L7.58404 18.3359L7.87204 18.9599L7.92004 19.2479L7.82404 20.2079L7.68004 21.2639H1.48804L1.58404 20.7359L2.06404 18.8639L2.16004 18.2879L2.35204 18.0959L2.97604 17.8559L4.32004 17.2319L4.65604 17.0879Z" fill="white"/>
<path d="M6.33595 11.7119L6.62395 11.7599L7.19995 12.0479L8.11195 12.2879L8.35195 12.3359H9.45595L10.2719 12.1439L10.7999 11.9519L11.2799 11.7119L11.4719 11.7599L11.6639 12.3359L11.7119 12.5759V13.5359L11.5199 14.3039L11.1839 14.9279L10.7519 15.4559L10.1759 15.8879L9.40795 16.1279H8.39995L7.91995 15.9839L7.48795 15.7919L7.10395 15.5039L6.71995 15.1199L6.38395 14.5919L6.09595 13.7279V12.4319L6.28795 11.8079L6.33595 11.7119Z" fill="white"/>
<path d="M17.28 3.07202L17.472 3.16802L17.904 3.64802L18.144 3.88802L18.384 4.03202L18.816 4.17602L19.44 4.22402L19.968 4.08002H20.256L19.92 4.94402L19.776 5.37602L19.536 6.00002L19.44 6.24002H15.264L14.592 4.60802L14.4 4.08002L14.832 4.12802L15.264 4.22402L15.888 4.17602L16.464 3.93602L17.04 3.40802L17.28 3.07202Z" fill="white"/>
<path d="M6.86402 16.0801H7.24802L7.48802 16.2721L8.16002 16.5121L8.40002 16.5601H9.40802L10.176 16.3201L10.56 16.0801H10.944L11.184 16.1761L11.232 16.3201L10.704 16.8961L10.32 17.3761H7.53602L7.20002 17.0401L6.76802 16.5121L6.62402 16.3681V16.1761L6.86402 16.0801Z" fill="white"/>
<path d="M6.43201 11.04H11.376L11.28 11.232L10.464 11.664L9.69601 11.904H8.16001L7.34401 11.664L6.52801 11.232L6.43201 11.04Z" fill="white"/>
<path d="M8.35206 19.2959H9.45606L9.69606 20.8799V21.2639H8.11206L8.16006 20.5919L8.35206 19.2959Z" fill="white"/>
<path d="M5.56806 15.8879L5.76006 15.9839L6.38406 16.7039L6.81606 17.1839L7.15206 17.6159L7.10406 17.9519L6.86406 18.5759H6.67206L6.09606 17.9039L5.52006 17.2319L5.23206 16.8959L5.32806 16.4639L5.56806 15.8879Z" fill="white"/>
<path d="M12.144 15.8879H12.24L12.576 16.7039L12.528 16.9439L11.952 17.6159L11.376 18.2879L11.088 18.6239L10.944 18.5759L10.704 17.9039L10.656 17.8559L10.704 17.5199L11.328 16.8479L11.76 16.3199L12.144 15.8879Z" fill="white"/>
<path d="M7.87195 17.856H9.88795L9.83995 18.192L9.55195 18.816H8.25595L8.11195 18.576L7.91995 18.096L7.87195 17.856Z" fill="white"/>
<path d="M8.35205 8.15991H9.45605L9.50405 8.20791V8.78391L8.97605 9.31191L8.78405 9.26391L8.35205 8.83191V8.15991Z" fill="white"/>
</svg>
