<svg width="20" height="20" viewBox="0 0 20 20" fill="none" xmlns="http://www.w3.org/2000/svg">
<g clip-path="url(#clip0_634_2052)">
<path d="M1.88 6.71997H18.12L18.32 6.83997L18.44 7.11997L18.4 7.39997L18.2 7.63997L18.08 7.67997H17.76V15.76H18.04L18.4 15.88L18.64 16.04L18.84 16.36L18.88 16.48V16.96L18.68 17.36L18.36 17.6L18.12 17.68H1.88L1.48 17.52L1.2 17.2L1.12 16.96V16.48L1.32 16.08L1.52 15.92L1.76 15.8L1.96 15.76H2.24V7.67997H1.92L1.72 7.55997L1.6 7.39997L1.56 7.07997L1.68 6.83997L1.88 6.71997ZM4.12 7.67997V15.76H6.75999V7.67997H4.12ZM8.64 7.67997V15.76H11.32V7.67997H8.64ZM13.24 7.67997V15.76H15.88V7.67997H13.24Z" fill="white"/>
<path d="M9.76 0H10.24L10.64 0.12L11.52 0.52L12.12 0.8L13.24 1.32L14.12 1.72L14.52 1.88L14.92 2.04L15.48 2.32L16.56 2.8L17.16 3.08L17.76 3.36L18.28 3.56L19.4 4.08L19.72 4.24L19.92 4.48L20 4.72V5.28L19.84 5.64L19.52 5.88L19.24 5.96H0.76L0.4 5.84L0.12 5.6L0 5.28V4.72L0.16 4.36L0.48 4.12L1.92 3.48L2.04 3.4L2.4 3.28L3.52 2.76L4.92 2.12L5.72 1.76L6.24 1.56L7.6 0.92L8.6 0.48L9.16 0.2L9.44 0.08L9.76 0Z" fill="white"/>
<path d="M0.68 18.1599H19.32L19.72 18.3599L19.92 18.5999L20 18.8399V19.3599L19.88 19.6399L19.64 19.9199L19.36 19.9999H0.64L0.36 19.8799L0.2 19.7599V19.6799L0.08 19.6399L0 19.3599V18.7999L0.12 18.5199L0.44 18.2399L0.68 18.1599Z" fill="white"/>
</g>
<defs>
<clipPath id="clip0_634_2052">
<rect width="20" height="20" fill="white"/>
</clipPath>
</defs>
</svg>
