<svg width="24" height="24" viewBox="0 0 24 24" fill="none" xmlns="http://www.w3.org/2000/svg">
<g clip-path="url(#clip0_634_2062)">
<path d="M9.36001 8.01611H10.176L10.08 8.20811L9.64801 8.73611L9.55201 8.97611V9.31211L9.69601 9.60011L10.032 9.88811H10.512L10.848 9.69611L11.04 9.50411H12.528L13.056 10.0321L13.44 10.3681L13.872 10.8001L14.208 11.1841L14.832 11.8081L15.36 12.2401V12.3361L15.552 12.4321L15.888 12.7681L16.224 13.1521L16.608 13.5361L16.656 13.8241L16.464 14.0641H16.08L15.84 13.8241L14.112 12.0961L13.872 11.8561L13.632 11.7121L13.488 11.7601L13.44 11.9521L13.728 12.2881L13.968 12.5281L15.84 14.4001V14.7361L15.6 14.9281L15.264 14.8801L14.88 14.5441L14.544 14.1601L14.16 13.8241L13.632 13.2961L13.392 13.0561L12.912 12.5761L12.672 12.6241L12.624 12.7681L12.96 13.1521L14.64 14.8321L14.688 14.9281V15.2641L14.496 15.4561H14.16L12.384 13.6801L12.192 13.5361H12L12.048 13.3441L12.192 13.0561V12.6241L12 12.1921L11.616 12.0001L11.472 11.9521L11.232 11.4721L10.992 11.2801L10.608 11.1841L10.176 11.3281L9.69601 11.8081L9.64801 11.9041L9.40801 11.8561L9.16801 11.6161L8.88001 11.4721L8.40001 11.5201L7.96801 11.8561L7.24801 12.5761L7.10401 12.7681H6.86401V9.50411L7.96801 9.45611L8.44801 9.21611L8.73601 8.78411L9.02401 8.20811L9.21601 8.06411L9.36001 8.01611Z" fill="white"/>
<path d="M6.52798 14.448H6.67198L7.00798 15.216L7.43998 15.984L7.72798 16.368L8.11198 16.896L8.87998 17.664L9.45598 18.096L9.88798 18.336V18.432L10.176 18.528L10.944 18.912L11.904 19.248L12.24 19.2L13.296 18.816L14.112 18.384L14.496 18.096L14.832 17.904L15.552 17.232L15.984 16.8L16.08 16.608H16.176L16.272 16.416L16.464 16.08H16.56L16.656 15.84L17.184 14.832L17.328 14.448L17.52 14.496L17.808 14.736L18.048 14.832L18.624 14.928L18.48 15.408L17.952 16.416L17.712 16.848L17.136 17.616L16.896 17.904L16.512 18.24L16.032 18.72L15.648 19.056L14.976 19.536L14.4 19.872L13.92 20.064L13.248 20.352L12.336 20.64L11.856 20.688L10.896 20.4L10.176 20.112L9.79198 19.92L9.45598 19.776L8.73598 19.344L8.11198 18.864L7.87198 18.624L7.19998 17.952L6.95998 17.712L6.62398 17.328L6.09598 16.56L5.71198 15.792L5.37598 15.024V14.928L6.09598 14.784L6.38398 14.592L6.52798 14.448Z" fill="white"/>
<path d="M11.904 3.31201L12.288 3.36001L13.872 3.84001L14.448 4.03201L14.928 4.12801L17.28 4.84801L19.2 5.42401V7.34401L18.288 7.39201L17.856 7.44001L17.808 6.48001L16.08 5.95201L15.312 5.76001L13.44 5.18401L12.048 4.75201L11.52 4.89601L9.74405 5.42401L8.54405 5.80801L7.44005 6.09601L6.19205 6.48001L6.14405 7.44001L4.80005 7.34401V5.47201L5.13605 5.32801L7.82405 4.51201L9.21605 4.08001L9.69605 3.98401L11.712 3.36001L11.904 3.31201Z" fill="white"/>
<path d="M18.144 7.82397H19.968L20.352 8.01597L20.544 8.25597L20.592 8.44797V13.824L20.4 14.208L20.112 14.4L19.968 14.448H18.144L17.856 14.256L17.664 14.016L17.616 13.92V8.30397L17.712 8.11197H17.808V8.01597L18.144 7.82397Z" fill="white"/>
<path d="M4.03196 7.82397H5.85596L6.14396 8.01597L6.33596 8.20797L6.38396 8.30397V13.92L6.23996 14.16L5.95196 14.4L5.85596 14.448H4.03196L3.64796 14.256L3.45596 13.968L3.40796 13.824V8.44797L3.55196 8.11197L3.79196 7.91997L4.03196 7.82397Z" fill="white"/>
<path d="M2.30395 16.176H2.68795L3.11995 16.32L3.50395 16.608L3.69595 16.896L3.79195 17.184V17.76L3.59995 18.192L3.55195 18.432L3.88795 18.816L4.03195 19.056L4.51195 19.536V19.632L4.70395 19.728L5.03995 20.064L5.27995 20.208L5.95195 20.736L6.62395 21.168L7.72795 21.744L8.44795 22.032L9.93595 22.416L10.896 22.56L11.472 22.608H12.576L13.824 22.464L14.832 22.224L15.312 22.08H15.84L15.888 22.128V22.608L15.264 22.848L14.064 23.136L13.056 23.28H10.992L9.93595 23.136L8.59195 22.8L7.82395 22.512L6.67195 21.984L5.90395 21.552L5.08795 20.976L4.46395 20.448L4.07995 20.112L3.83995 19.872L3.35995 19.344L2.92795 18.768H2.20795L1.72795 18.528L1.48795 18.288L1.24795 17.904L1.19995 17.664V17.328L1.34395 16.848L1.77595 16.368L2.30395 16.176Z" fill="white"/>
<path d="M22.128 8.11206H22.608L22.848 8.73606L23.136 9.93606L23.28 10.9441V13.0081L23.136 14.0641L22.8 15.4081L22.512 16.1761L21.984 17.3281L21.552 18.0961L20.976 18.9121L20.448 19.5361L20.16 19.8721L19.92 20.0641L19.68 20.3041L19.344 20.6401L18.768 21.0721V21.7921L18.528 22.2721L18.288 22.5121L17.904 22.7521L17.664 22.8001H17.328L16.848 22.6561L16.464 22.3201L16.272 22.0321L16.176 21.6961V21.3121L16.32 20.8801L16.608 20.4961L16.896 20.3041L17.184 20.2081H17.76L18.192 20.4001L18.432 20.4481L18.816 20.1121L19.056 19.9681L20.064 18.9601L20.208 18.7201L20.736 18.0481L21.168 17.3761L21.744 16.2721L22.032 15.5521L22.416 14.0641L22.56 13.1041L22.608 12.5281V11.4721L22.512 10.5121L22.32 9.55206L22.08 8.68806V8.16006L22.128 8.11206Z" fill="white"/>
<path d="M6.33597 1.19995H6.67197L7.15197 1.34395L7.53597 1.67995L7.72797 1.96795L7.82397 2.30395V2.68795L7.67997 3.11995L7.39197 3.50395L7.10397 3.69595L6.81597 3.79195H6.23997L5.80797 3.59995L5.61597 3.50395L5.18397 3.88795L4.94397 4.03195L4.46397 4.51195H4.36797L4.27197 4.70395L3.93597 5.03995L3.79197 5.27995L3.31197 5.90395L2.97597 6.38395L2.54397 7.15195L2.06397 8.15995L1.87197 8.83195L1.58397 9.93595L1.43997 10.896L1.39197 11.472V12.576L1.53597 13.824L1.77597 14.832L1.91997 15.456V15.792L1.87197 15.888H1.39197L1.19997 15.408L0.911971 14.304L0.767971 13.488L0.719971 13.056V10.992L0.911971 9.69595L1.24797 8.44795L1.63197 7.48795L2.20797 6.28795L2.87997 5.27995L3.50397 4.51195L3.88797 4.07995L4.12797 3.83995L4.65597 3.35995L5.23197 2.92795V2.20795L5.51997 1.63195L5.90397 1.34395L6.33597 1.19995Z" fill="white"/>
<path d="M10.9441 0.719971H13.0081L14.3041 0.911971L15.5521 1.24797L16.5121 1.63197L17.7121 2.20797L18.7201 2.87997L19.2001 3.26397L19.6801 3.69597L19.9201 3.93597L20.2561 4.22397L20.5921 4.60797L21.0721 5.23197H21.7921L22.3681 5.51997L22.6561 5.90397L22.8001 6.33597V6.67197L22.6561 7.15197L22.3201 7.53597L22.0321 7.72797L21.6961 7.82397H21.3121L20.8801 7.67997L20.4961 7.39197L20.2561 6.95997L20.2081 6.81597V6.23997L20.4001 5.80797L20.4961 5.61597L20.1121 5.18397L19.9681 4.94397L19.5841 4.55997V4.46397H19.4881V4.36797L19.2961 4.27197L18.9601 3.93597L18.7201 3.79197L18.0481 3.26397L17.3761 2.83197L16.2721 2.25597L15.5521 1.96797L14.0641 1.58397L13.1041 1.43997L12.5281 1.39197H11.4241L10.1761 1.53597L9.16806 1.77597L8.54406 1.91997H8.20806L8.11206 1.87197V1.39197L8.73606 1.15197L9.93606 0.863971L10.9441 0.719971Z" fill="white"/>
<path d="M10.992 8.01611H13.728L14.112 8.20811L14.976 8.88011L15.6 9.31211L15.888 9.40811L17.136 9.45611V12.7681H16.416L16.08 12.4321L15.84 12.1441L15.312 11.7121L14.112 10.5121L13.776 10.1281L13.056 9.45611L12.624 9.07211H10.944L10.56 9.40811L10.416 9.50411L10.08 9.45611L9.98401 9.31211V8.92811L10.272 8.59211H10.368L10.464 8.40011L10.752 8.11211L10.992 8.01611Z" fill="white"/>
<path d="M11.28 12.4319H11.664L11.808 12.5759L11.856 12.8639L11.712 13.1039L10.944 13.8719L10.56 14.2079L9.93602 14.8319L9.69602 15.1199L9.60002 15.1679H9.26402L9.07202 14.9279L9.12002 14.5919L9.60002 14.1119L9.98402 13.7759L10.416 13.2959L11.28 12.4319Z" fill="white"/>
<path d="M10.512 11.616L10.848 11.664L10.992 11.808V12.096L10.656 12.48L9.93598 13.2L9.59998 13.584L8.83198 14.304L8.54398 14.352L8.30398 14.208L8.25598 14.16V13.824L8.92798 13.104L9.31198 12.768L10.416 11.664L10.512 11.616Z" fill="white"/>
<path d="M11.856 13.5359H11.904L12 13.9199L12.624 14.4959L13.584 15.4559V15.7919L13.536 15.8879L13.392 15.9359H13.008L12.624 15.5999L12.096 15.0719L12 14.9279V14.5919L11.808 14.1599L11.52 13.9679L11.616 13.7759L11.856 13.5359Z" fill="white"/>
<path d="M10.992 14.3521H11.376L11.568 14.5441V14.8321L11.232 15.2161L10.56 15.8881L10.368 15.9841H10.128L9.93604 15.8401V15.4561L10.464 14.8801L10.992 14.3521Z" fill="white"/>
<path d="M8.54394 11.9041H8.87994L9.07194 12.0961V12.3841L8.73594 12.7681L8.01594 13.4881L7.91994 13.5361H7.63194L7.43994 13.2961V13.0081L7.77594 12.6241L8.44794 11.9521L8.54394 11.9041Z" fill="white"/>
</g>
<defs>
<clipPath id="clip0_634_2062">
<rect width="24" height="24" fill="white"/>
</clipPath>
</defs>
</svg>

