<svg width="16" height="16" viewBox="0 0 16 16" fill="none" xmlns="http://www.w3.org/2000/svg">
<g clip-path="url(#clip0_636_1378)">
<path fill-rule="evenodd" clip-rule="evenodd" d="M0.128 9.31173L0.288 9.15173L0.448 9.02373L0.704 8.92773H7.776L8 9.02373L8.256 9.21573L8.448 9.50373L8.512 9.82373V14.1757L8.448 14.4957L8.224 14.8157L7.936 15.0077L7.776 15.0717H0.704L0.384 14.9437L0.224 14.8157L0.064 14.5917L0 14.3997V9.59973L0.128 9.31173ZM0.6875 9.74563L0.704401 9.70761L0.747211 9.6648L0.791951 9.629L0.828668 9.61523H7.63489L7.65343 9.62318L7.74929 9.69508L7.80052 9.77193L7.8245 9.89181V14.1077L7.80212 14.2196L7.73498 14.3155L7.63184 14.3842H0.836401L0.733923 14.3433L0.727984 14.3385L0.6875 14.2818V9.74563Z" fill="#001447"/>
<path fill-rule="evenodd" clip-rule="evenodd" d="M8.22398 0.927734H15.296L15.616 1.05573L15.808 1.21573L15.936 1.40773L16 1.59973L16 6.39974L15.872 6.68774L15.712 6.84774L15.552 6.97574L15.296 7.07174H8.22398L7.99998 6.97574L7.74398 6.78374L7.55198 6.49574L7.48798 6.17574L7.48798 1.82373L7.55198 1.50373L7.77598 1.18373L8.06398 0.991734L8.22398 0.927734ZM8.17548 1.89181L8.19786 1.77991L8.265 1.68399L8.36813 1.61523H15.1636L15.2595 1.65361L15.2913 1.68005L15.3125 1.71189L15.3125 6.25385L15.2956 6.29187L15.2528 6.33468L15.208 6.37048L15.1713 6.38424H8.36509L8.34655 6.3763L8.25069 6.3044L8.19946 6.22755L8.17548 6.10767L8.17548 1.89181Z" fill="#001447"/>
<path d="M4.35204 1.8562H5.82404L6.01604 1.9842L6.14404 2.1762V2.5282L6.01604 2.7202L5.76004 2.8482L4.48004 2.8802L4.12804 2.9762L3.93604 3.0722L3.68004 3.2642L3.52004 3.4242L3.32804 3.6802L3.16804 4.0322L3.10404 4.4162V5.5682L3.36004 5.3122L3.55204 5.1842L3.64804 5.1522H3.90404L4.09604 5.2802L4.22404 5.4082L4.25604 5.5042V5.7922L4.12804 6.0162L3.93604 6.2402L3.77604 6.3682L3.58404 6.5922L3.32804 6.8162L2.91204 7.2322L2.68804 7.3282H2.46404L2.27204 7.2322L1.50404 6.4642L1.34404 6.3042L0.99204 5.9522L0.92804 5.8242V5.4722L1.05604 5.2802L1.31204 5.1522H1.53604L1.72804 5.2482L2.04804 5.5362L2.08004 4.2562L2.17604 3.7442L2.33604 3.3282L2.52804 2.9762L2.81604 2.6242L3.10404 2.3682L3.52004 2.1122L4.03204 1.9202L4.35204 1.8562Z" fill="#001447"/>
<path d="M13.312 8.67188H13.536L13.728 8.76788L14.496 9.53588L14.656 9.69588L15.008 10.0479L15.072 10.1759V10.5279L14.912 10.7519L14.688 10.8479H14.464L14.272 10.7519L13.952 10.4639L13.92 11.7439L13.824 12.2559L13.664 12.6719L13.472 13.0239L13.12 13.4399L12.8 13.6959L12.416 13.9199L11.84 14.1119L11.648 14.1439H10.176L9.98396 14.0159L9.85596 13.8239V13.4719L9.98396 13.2799L10.24 13.1519L11.52 13.1199L11.968 12.9919L12.288 12.7679L12.448 12.6079L12.64 12.3839L12.832 11.9679L12.896 11.5839V10.4319L12.608 10.7199L12.352 10.8479H12.096L11.904 10.7199L11.776 10.5919L11.744 10.4959V10.2079L11.872 9.98388L12.096 9.72787L12.256 9.56788L12.768 9.08788L13.088 8.76788L13.312 8.67188Z" fill="#001447"/>
</g>
<defs>
<clipPath id="clip0_636_1378">
<rect width="16" height="16" fill="white"/>
</clipPath>
</defs>
</svg>
