<svg width="16" height="16" viewBox="0 0 16 16" fill="none" xmlns="http://www.w3.org/2000/svg">
<path d="M7.80801 0H8.19201L8.44801 0.128L9.24801 1.312L9.37601 1.536L9.72801 2.048L10.144 2.656V2.72H10.208L10.272 2.912H10.336L10.592 3.296L10.72 3.552L11.04 4.032L11.52 4.768L11.936 5.472L12.384 6.272L12.8 7.04L13.216 7.904L13.44 8.544L13.6 9.024L13.76 9.728L13.792 10.08V10.432L13.728 11.104L13.6 11.744L13.312 12.544L13.152 12.928L12.96 13.248L12.672 13.664L12.416 13.984L12.032 14.4L11.648 14.752L11.2 15.072L10.72 15.36L10.208 15.616L9.56801 15.84L9.18401 15.936L8.60801 16H7.39201L6.81601 15.936L6.20801 15.776L5.56801 15.52L4.99201 15.2L4.60801 14.944L4.19201 14.624L3.80801 14.272L3.58401 14.016L3.16801 13.472L2.97601 13.152V13.088H2.91201L2.72001 12.704L2.49601 12.064L2.30401 11.36L2.24001 10.944L2.20801 10.464V10.112L2.27201 9.568L2.46401 8.832L2.72001 8.096L3.07201 7.296L3.48801 6.496L3.90401 5.76L4.06401 5.472L4.48001 4.768L4.96001 4.032L5.37601 3.392L5.60001 3.008L5.79201 2.72H5.85601L5.92001 2.56L6.27201 2.048L7.20001 0.672L7.48801 0.224L7.64801 0.064L7.80801 0ZM7.96801 1.632L7.74401 2.016L7.39201 2.528V2.592H7.32801L6.59201 3.712L6.04801 4.544L5.60001 5.248L5.37601 5.568L5.05601 6.176L4.80001 6.592L4.51201 7.104L4.12801 7.84L3.93601 8.224L3.84001 8.512L3.52001 9.408L3.42401 9.856L3.39201 10.336L3.45601 10.976L3.61601 11.648L3.80801 12.16L3.90401 12.32L4.00001 12.544L4.28801 12.992L4.57601 13.344L4.96001 13.696L5.31201 13.984L5.76001 14.272L6.36801 14.56L6.84801 14.72L7.52001 14.816H8.48001L9.28001 14.688L9.79201 14.496L10.304 14.24L10.656 14.016L11.072 13.664L11.296 13.44L11.488 13.28L11.84 12.8L12.064 12.448L12.224 12.064L12.416 11.552L12.544 10.976L12.608 10.304L12.576 9.856L12.448 9.312L12.224 8.672L12.096 8.384L12 8.096L11.648 7.392L11.264 6.688L10.944 6.176L10.752 5.856L10.56 5.472L10.272 5.056L9.88801 4.448L9.40801 3.712L8.67201 2.592H8.60801L8.54401 2.432L8.09601 1.76L8.03201 1.632H7.96801Z" fill="#001447"/>
<path d="M11.136 9.82397H11.52L11.744 9.95197L11.872 10.112L11.936 10.272V10.656L11.84 11.232L11.68 11.744L11.456 12.192L11.04 12.8L10.816 13.024L10.656 13.184L10.4 13.408L9.95203 13.696L9.76003 13.76L9.44003 13.728L9.18403 13.536L9.08803 13.376L9.05603 13.248V13.024L9.18403 12.768L9.47203 12.512L9.82403 12.256L10.08 12.032L10.368 11.616L10.592 11.136L10.688 10.784L10.752 10.208L10.912 9.95197L11.136 9.82397Z" fill="#001447"/>
</svg>
