<svg width="69" height="69" viewBox="0 0 69 69" fill="none" xmlns="http://www.w3.org/2000/svg">
<path d="M35.4659 32.292H48.5759V66.93H35.4659V32.292ZM41.6759 41.124L41.1239 41.676L40.9859 42.09V43.332L40.1579 43.47L39.0539 44.298L38.3639 45.126L37.9499 45.954L37.8119 46.92L38.0879 48.162L38.7779 49.266L39.8819 50.232L40.5719 50.508L43.3319 50.784L44.0219 51.336L44.1599 51.612V52.992L43.6079 53.682L43.3319 53.82L38.9159 53.958L38.2259 54.234L37.9499 54.51V55.338L38.5019 55.89L38.9159 56.028H40.9859V57.132L41.2619 57.822L41.5379 57.96H42.5039L42.9179 57.546L43.0559 57.132V55.89L43.8839 55.752L45.1259 54.924L45.8159 54.096L46.2299 53.13V51.474L45.5399 50.094L44.4359 49.128L43.4699 48.714L40.7099 48.438L40.0199 47.61V46.23L40.7099 45.402L45.2639 45.264L46.0919 44.85L46.2299 43.884L45.6779 43.332L45.2639 43.194H43.0559V42.09L42.6419 41.262L41.6759 41.124Z" fill="#0892D0"/>
<path d="M43.884 11.3159H44.574L46.92 13.1099L49.542 15.0419L51.336 16.4219L52.578 17.3879L53.82 18.2159L56.718 20.4239L57.132 20.6999V20.9759L57.684 21.2519L60.306 23.1839L61.272 23.7359L62.652 24.8399V30.2219H25.806V24.8399L27.738 23.3219L28.704 22.7699L29.808 21.8039L32.43 19.8719L35.328 17.6639L37.26 16.2839L40.158 14.0759L41.676 12.8339L43.194 11.7299L43.884 11.3159ZM44.16 17.2499L42.642 17.5259L40.986 18.3539L39.882 19.4579L39.054 21.5279L38.916 22.7699L39.192 24.1499L40.02 25.9439L40.986 26.9099L42.642 27.7379L43.056 27.8759H45.264L46.368 27.4619L47.61 26.6339L48.714 25.3919L49.404 23.7359V21.5279L48.714 19.8719L47.472 18.4919L46.23 17.6639L45.402 17.3879L44.16 17.2499Z" fill="#0892D0"/>
<path d="M43.608 2.07007H44.85L45.678 2.62207L46.368 3.31207L48.99 5.24407L50.922 6.62407L53.268 8.41807L56.166 10.6261L57.132 11.3161V11.5921L57.96 11.8681L60.444 13.8001L62.928 15.5941L63.618 16.2841L65.136 17.3881L66.102 17.9401L66.792 18.4921L66.93 18.7681V24.0121L66.378 24.5641H65.136L63.48 23.3221L62.79 22.7701L61.548 21.9421L58.65 19.7341L57.822 19.1821L57.132 18.4921L55.2 17.1121L53.958 16.2841L52.164 14.9041L50.646 13.6621L48.024 11.7301L45.954 10.2121L44.298 8.97007L43.056 9.79807L41.262 11.1781L40.296 11.7301L39.882 11.8681L39.744 12.2821L37.122 14.2141L34.224 16.4221L32.292 17.8021L29.394 20.0101L28.566 20.5621L27.876 21.2521L25.944 22.6321L24.702 23.4601L23.184 24.5641H22.08L21.528 24.0121V18.7681L22.218 18.0781L22.908 17.5261H23.322V17.2501L25.944 15.3181L28.842 13.1101L29.67 12.5581L30.36 11.8681L31.74 11.0401L34.224 9.10807L36.156 7.59007L38.226 6.07207L39.468 5.24407L40.848 4.14007L43.332 2.20807L43.608 2.07007Z" fill="#0892D0"/>
<path d="M50.646 32.292H62.79L64.17 32.844L65.412 33.81L66.516 35.19L66.93 36.432V58.374L66.378 59.892L65.412 61.134L64.17 62.1L62.652 62.652H50.646V58.098L57.132 57.96L57.822 57.684L58.236 55.752L58.788 54.924L59.754 54.096L60.444 53.82L61.824 53.544L62.238 53.13L62.376 52.716V42.09L62.1 41.4L61.41 41.124L60.03 40.848L59.202 40.296L58.236 39.192L57.822 36.984L57.132 36.846L50.646 36.708V32.292Z" fill="#0892D0"/>
<path d="M21.39 32.292H33.534V36.708L27.048 36.846L26.358 37.122L26.082 37.812L25.806 39.192L25.392 39.882L24.288 40.71L23.598 40.986L22.218 41.262L21.804 42.09V52.716L22.08 53.406L22.632 53.682L24.012 53.958L24.84 54.51L25.668 55.476L25.944 56.166L26.22 57.822L26.91 57.96L33.396 58.098L33.534 58.236V62.514L33.396 62.652H21.39L19.872 62.1L18.63 61.134L17.664 59.892L17.25 58.374V36.432L17.664 35.052L18.63 33.81L19.872 32.844L21.39 32.292Z" fill="#0892D0"/>
<path d="M27.738 38.7781H33.534V56.0281L33.396 56.1661H27.876L26.772 53.9581L25.806 52.9921L24.15 52.1641L23.598 51.8881V42.9181L25.806 41.8141L26.772 40.8481L26.91 40.5721H27.186L27.6 39.3301L27.738 38.7781Z" fill="#0892D0"/>
<path d="M50.646 38.7781H56.304L57.408 40.9861L58.65 42.0901L60.444 42.9181V51.8881L58.236 52.9921L57.27 53.9581L56.442 56.0281L56.304 56.1661H50.646V38.7781Z" fill="#0892D0"/>
<path d="M8.41795 21.5281H13.1099L15.4559 21.9421L16.8359 22.3561L19.0439 23.5981L19.4579 24.1501V25.3921L18.9059 26.0821L17.5259 26.9101L15.8699 27.6001L13.1099 28.1521H8.41795L5.65795 27.6001L4.00195 26.9101L2.62195 26.0821L2.06995 25.3921V24.1501L2.62195 23.4601L4.82995 22.3561L6.76195 21.8041L8.41795 21.5281Z" fill="#0892D0"/>
<path d="M2.06995 28.0139L2.89795 28.2899L4.13995 28.8419L6.48595 29.5319L8.00395 29.8079L9.52195 29.9459H12.0059L14.3519 29.6699L16.4219 29.1179L17.8019 28.7039L19.1819 28.0139H19.4579V31.0499L17.5259 32.4299L16.2839 33.9479L15.3179 34.2239L13.2479 34.4999H8.41795L5.65795 34.0859L4.00195 33.3959L2.62195 32.5679L2.06995 31.8779V28.0139Z" fill="#0892D0"/>
<path d="M2.06995 60.3059L2.89795 60.5819L4.82995 61.4099L6.48595 61.9619L8.14195 62.2379L9.65995 62.3759L13.1099 62.2379L15.3179 61.9619L15.8699 64.1699L16.6979 65.6879V66.1019L14.7659 66.6539L13.2479 66.9299H8.41795L5.65795 66.3779L4.00195 65.6879L2.62195 64.8599L2.06995 64.1699V60.3059Z" fill="#0892D0"/>
<path d="M2.06995 34.5L3.44995 34.914L4.82995 35.466L6.48595 36.018L8.00395 36.294L9.52195 36.432L13.1099 36.294L15.4559 36.018L15.1799 40.572L13.1099 40.986H8.41795L5.65795 40.434L3.44995 39.606L2.34595 38.778L2.06995 38.364V34.5Z" fill="#0892D0"/>
<path d="M2.06995 40.8479L2.89795 41.1239L4.82995 41.9519L6.48595 42.5039L8.00395 42.7799L10.9019 42.9179L14.0759 42.6419L15.1799 42.5039V47.0579L13.1099 47.4719H8.41795L5.65795 46.9199L3.86395 46.2299L2.48395 45.4019L2.06995 44.8499V40.8479Z" fill="#0892D0"/>
<path d="M2.06995 47.334L2.89795 47.61L4.82995 48.438L6.48595 48.99L8.14195 49.266L9.65995 49.404L13.1099 49.266L15.1799 48.99V53.544L13.1099 53.958H8.41795L5.65795 53.406L4.00195 52.716L2.62195 51.888L2.06995 51.336V47.334Z" fill="#0892D0"/>
<path d="M2.06995 53.8201L2.89795 54.0961L4.82995 54.9241L6.48595 55.4761L8.14195 55.7521L9.65995 55.8901L13.1099 55.7521L15.1799 55.4761V60.0301L13.1099 60.4441H8.41795L5.65795 59.8921L4.00195 59.2021L2.62195 58.3741L2.06995 57.6841V53.8201Z" fill="#0892D0"/>
<path d="M17.25 62.376L18.078 62.928L19.044 63.48L20.7 64.17L22.632 64.446L33.534 64.584V66.93H21.39L19.872 66.378L18.63 65.412L17.664 64.17L17.25 62.79V62.376Z" fill="#0892D0"/>
<path d="M66.516 62.5139H66.93L66.516 63.8939L65.55 65.2739L64.584 66.1019L63.204 66.7919L62.79 66.9299H50.646V64.5839L61.41 64.4459L63.48 64.1699L64.722 63.6179L65.826 63.0659L66.516 62.5139Z" fill="#0892D0"/>
<path d="M43.194 19.3201H45.264L46.23 19.8721L47.196 20.9761L47.472 21.6661V23.5981L46.92 24.7021L45.678 25.8061L45.264 25.9441H43.194L42.09 25.3921L41.124 24.2881L40.848 23.5981V21.6661L41.4 20.5621L42.504 19.5961L43.194 19.3201Z" fill="#0892D0"/>
</svg>
