<svg width="468" height="393" viewBox="0 0 468 393" fill="none" xmlns="http://www.w3.org/2000/svg">
<path d="M467.7 89.6V370.6C467.674 376.427 465.347 382.007 461.227 386.127C457.107 390.247 451.527 392.574 445.7 392.6H22C16.1733 392.574 10.5928 390.247 6.4727 386.127C2.35259 382.007 0.0263059 376.427 0 370.6V22C0 16.1652 2.31785 10.5695 6.44365 6.44365C10.5694 2.31785 16.1652 0 22 0H368.8C371.68 0.0129372 374.529 0.596341 377.182 1.71651C379.835 2.83667 382.239 4.4714 384.257 6.52626C386.275 8.58113 387.865 11.0154 388.937 13.6885C390.008 16.3615 390.54 19.2204 390.5 22.1V22.4C390.5 47.7 395.5 72 436.4 68.3L442.7 67.9C445.805 67.4725 448.966 67.7136 451.971 68.607C454.975 69.5004 457.754 71.0256 460.121 73.0803C462.488 75.135 464.389 77.6719 465.696 80.5209C467.003 83.37 467.687 86.4655 467.7 89.6Z" fill="#19173D"/>
</svg>
