<svg width="91" height="16" viewBox="0 0 91 16" fill="none" xmlns="http://www.w3.org/2000/svg">
<path d="M90.7071 8.70711C91.0976 8.31659 91.0976 7.68343 90.7071 7.2929L84.3431 0.92894C83.9526 0.538416 83.3195 0.538416 82.9289 0.92894C82.5384 1.31946 82.5384 1.95263 82.9289 2.34315L88.5858 8.00001L82.9289 13.6569C82.5384 14.0474 82.5384 14.6806 82.9289 15.0711C83.3195 15.4616 83.9526 15.4616 84.3431 15.0711L90.7071 8.70711ZM4.85609e-09 9.00001L1.5 9.00001L1.5 7.00001L-4.85755e-09 7.00001L4.85609e-09 9.00001ZM4.5 9.00001L7.5 9.00001L7.5 7.00001L4.5 7.00001L4.5 9.00001ZM10.5 9.00001L13.5 9.00001L13.5 7.00001L10.5 7.00001L10.5 9.00001ZM16.5 9.00001L19.5 9.00001L19.5 7.00001L16.5 7.00001L16.5 9.00001ZM22.5 9.00001L25.5 9.00001L25.5 7.00001L22.5 7.00001L22.5 9.00001ZM28.5 9.00001L31.5 9.00001L31.5 7.00001L28.5 7.00001L28.5 9.00001ZM34.5 9.00001L37.5 9.00001L37.5 7.00001L34.5 7.00001L34.5 9.00001ZM40.5 9.00001L43.5 9.00001L43.5 7.00001L40.5 7.00001L40.5 9.00001ZM46.5 9.00001L49.5 9.00001L49.5 7.00001L46.5 7.00001L46.5 9.00001ZM52.5 9.00001L55.5 9.00001L55.5 7.00001L52.5 7.00001L52.5 9.00001ZM58.5 9.00001L61.5 9.00001L61.5 7.00001L58.5 7.00001L58.5 9.00001ZM64.5 9.00001L67.5 9.00001L67.5 7.00001L64.5 7.00001L64.5 9.00001ZM70.5 9.00001L73.5 9.00001L73.5 7.00001L70.5 7.00001L70.5 9.00001ZM76.5 9.00001L79.5 9.00001L79.5 7.00001L76.5 7.00001L76.5 9.00001ZM82.5 9.00001L85.5 9.00001L85.5 7.00001L82.5 7.00001L82.5 9.00001ZM88.5 9.00001L90 9.00001L90 7.00001L88.5 7.00001L88.5 9.00001ZM90.7071 8.70711C91.0976 8.31659 91.0976 7.68343 90.7071 7.2929L84.3431 0.92894C83.9526 0.538416 83.3195 0.538416 82.9289 0.92894C82.5384 1.31946 82.5384 1.95263 82.9289 2.34315L88.5858 8.00001L82.9289 13.6569C82.5384 14.0474 82.5384 14.6806 82.9289 15.0711C83.3195 15.4616 83.9526 15.4616 84.3431 15.0711L90.7071 8.70711ZM4.85609e-09 9.00001L1.5 9.00001L1.5 7.00001L-4.85755e-09 7.00001L4.85609e-09 9.00001ZM4.5 9.00001L7.5 9.00001L7.5 7.00001L4.5 7.00001L4.5 9.00001ZM10.5 9.00001L13.5 9.00001L13.5 7.00001L10.5 7.00001L10.5 9.00001ZM16.5 9.00001L19.5 9.00001L19.5 7.00001L16.5 7.00001L16.5 9.00001ZM22.5 9.00001L25.5 9.00001L25.5 7.00001L22.5 7.00001L22.5 9.00001ZM28.5 9.00001L31.5 9.00001L31.5 7.00001L28.5 7.00001L28.5 9.00001ZM34.5 9.00001L37.5 9.00001L37.5 7.00001L34.5 7.00001L34.5 9.00001ZM40.5 9.00001L43.5 9.00001L43.5 7.00001L40.5 7.00001L40.5 9.00001ZM46.5 9.00001L49.5 9.00001L49.5 7.00001L46.5 7.00001L46.5 9.00001ZM52.5 9.00001L55.5 9.00001L55.5 7.00001L52.5 7.00001L52.5 9.00001ZM58.5 9.00001L61.5 9.00001L61.5 7.00001L58.5 7.00001L58.5 9.00001ZM64.5 9.00001L67.5 9.00001L67.5 7.00001L64.5 7.00001L64.5 9.00001ZM70.5 9.00001L73.5 9.00001L73.5 7.00001L70.5 7.00001L70.5 9.00001ZM76.5 9.00001L79.5 9.00001L79.5 7.00001L76.5 7.00001L76.5 9.00001ZM82.5 9.00001L85.5 9.00001L85.5 7.00001L82.5 7.00001L82.5 9.00001ZM88.5 9.00001L90 9.00001L90 7.00001L88.5 7.00001L88.5 9.00001Z" fill="#0892D0"/>
</svg>
