<svg width="17" height="16" viewBox="0 0 17 16" fill="none" xmlns="http://www.w3.org/2000/svg">
<path d="M3.03893 4.74354L3.41486 5.10952C3.78089 5.4755 4.15188 5.83654 4.50802 6.21241C4.63263 6.33801 4.71524 6.49914 4.74447 6.67362C4.77371 6.84811 4.74812 7.02736 4.67125 7.18671C4.59668 7.34732 4.4759 7.48205 4.32435 7.57367C4.1728 7.6653 3.99736 7.70965 3.82047 7.70106C3.55831 7.69116 3.3555 7.56258 3.17249 7.37959C2.27718 6.47948 1.37694 5.58431 0.481635 4.67925C0.328297 4.52594 0.160118 4.35778 0.0760288 4.1649C-0.0773101 3.81871 0.00678079 3.48735 0.278834 3.21533C1.25163 2.23609 2.22937 1.26015 3.21206 0.287498C3.57809 -0.0784813 4.10241 -0.0933186 4.4635 0.233096C4.82459 0.55951 4.85921 1.13815 4.48823 1.51897C4.11725 1.89979 3.6325 2.37952 3.20711 2.80484L3.05872 2.9631H12.6943C13.2384 2.9631 13.6342 3.33898 13.6391 3.84343C13.6409 4.07046 13.5558 4.28957 13.4013 4.45597C13.2469 4.62237 13.0347 4.72347 12.8081 4.7386H3.03893V4.74354Z" fill="#001447"/>
<path d="M12.996 11.2566L12.5063 10.7868L11.5665 9.84214C11.1856 9.45638 11.1757 8.9173 11.5368 8.55627C11.8979 8.19523 12.4321 8.21007 12.813 8.58099L15.7512 11.5088C15.8367 11.5918 15.9047 11.6911 15.9509 11.8009C15.9972 11.9107 16.0208 12.0287 16.0203 12.1479C16.0198 12.267 15.9953 12.3848 15.9482 12.4943C15.9011 12.6037 15.8324 12.7025 15.7462 12.7848C14.7718 13.7641 13.7924 14.7433 12.813 15.7126C12.4321 16.0885 11.893 16.0935 11.5368 15.7374C11.1807 15.3813 11.1856 14.8373 11.5665 14.4515C11.9474 14.0657 12.4025 13.6107 12.8229 13.1953L12.9663 13.037H3.33074C2.78169 13.037 2.38102 12.6513 2.38597 12.1369C2.38929 11.9125 2.47726 11.6977 2.63227 11.5353C2.78727 11.373 2.99788 11.2752 3.22192 11.2615C3.28622 11.2566 3.35547 11.2615 3.42472 11.2615H12.996V11.2566Z" fill="#001447"/>
</svg>
