<svg width="35" height="35" viewBox="0 0 35 35" fill="none" xmlns="http://www.w3.org/2000/svg">
<rect width="35" height="35" rx="2" fill="#0892D0"/>
<path fill-rule="evenodd" clip-rule="evenodd" d="M10.9153 8.71186H7.71186L7.71186 11.9153H10.9153V8.71186ZM7.71186 8C7.31871 8 7 8.31871 7 8.71186V11.9153C7 12.3084 7.31871 12.6271 7.71186 12.6271H10.9153C11.3084 12.6271 11.6271 12.3084 11.6271 11.9153V10.8477H14.1186V13.1559L12.1056 14.3181V20.5469L14.1186 21.7091V24.3731H11.6271V23.3051C11.6271 22.9119 11.3084 22.5932 10.9153 22.5932H7.71186C7.31871 22.5932 7 22.9119 7 23.3051V26.5085C7 26.9016 7.31871 27.2203 7.71186 27.2203H10.9153C11.3084 27.2203 11.6271 26.9016 11.6271 26.5085V25.085H14.8304V22.1201L17.4999 23.6613L20.1694 22.1201V25.2627H23.3729V26.5085C23.3729 26.9016 23.6916 27.2203 24.0847 27.2203H27.2881C27.6813 27.2203 28 26.9016 28 26.5085V23.3051C28 22.9119 27.6813 22.5932 27.2881 22.5932H24.0847C23.6916 22.5932 23.3729 22.9119 23.3729 23.3051V24.5508H20.8813V21.7091L22.8942 20.5469V14.3181L20.8813 13.1559V11.0254H23.3729V11.9153C23.3729 12.3084 23.6916 12.6271 24.0847 12.6271H27.2881C27.6813 12.6271 28 12.3084 28 11.9153V8.71186C28 8.31871 27.6813 8 27.2881 8H24.0847C23.6916 8 23.3729 8.31871 23.3729 8.71186V10.3135H20.1694V12.7449L17.4999 11.2037L14.8304 12.7449V10.1358H11.6271V8.71186C11.6271 8.31871 11.3084 8 10.9153 8H7.71186ZM17.4999 12.0257L13.0158 14.6145L17.5027 16.858L22.0595 14.6581L17.4999 12.0257ZM12.8175 20.1359V15.3112L16.966 17.3855V22.5311L12.8175 20.1359ZM22.1824 20.1359L17.6779 22.7366V17.5639L22.1824 15.3893V20.1359ZM7.71186 23.3051H10.9153V26.5085H7.71186L7.71186 23.3051ZM27.2881 8.71186H24.0847V11.9153H27.2881V8.71186ZM24.0847 23.3051H27.2881V26.5085H24.0847V23.3051Z" fill="white"/>
</svg>
