<svg width="35" height="35" viewBox="0 0 35 35" fill="none" xmlns="http://www.w3.org/2000/svg">
<rect width="35" height="35" rx="2" fill="#0892D0"/>
<path d="M6.99994 26.0285V12.5993C7.29594 11.8287 7.60072 11.6206 8.43303 11.6206H25.3224C26.1664 11.6206 26.6324 12.0836 26.6324 12.9275C26.6353 13.8681 26.6324 14.8116 26.6324 15.7551C26.6324 15.8255 26.6265 15.8958 26.6236 15.9808H19.7659C18.5907 15.9837 17.7232 16.8247 17.7056 17.9909C17.6939 18.8641 17.688 19.7402 17.7144 20.6134C17.7252 20.8969 17.794 21.1751 17.9166 21.431C18.2918 22.2016 18.9424 22.562 19.7864 22.562C21.9844 22.5679 24.1824 22.5649 26.3774 22.5649H26.6177C26.6236 22.6177 26.6324 22.6441 26.6324 22.6675C26.6324 23.7136 26.6441 24.7567 26.6295 25.8028C26.6177 26.5354 26.1225 26.9984 25.3693 26.9984C19.6662 27.0023 13.9632 27.0003 8.26012 26.9925C8.02567 26.9925 7.77656 26.9134 7.56262 26.8108C7.24611 26.6614 7.10544 26.3508 6.99994 26.0285Z" fill="white"/>
<path d="M23.2006 16.7948C24.3143 16.7948 25.425 16.7918 26.5387 16.7948C27.3592 16.7948 27.8369 17.2753 27.8369 18.0987C27.8369 18.9221 27.8399 19.6722 27.8369 20.4605C27.834 21.2487 27.3563 21.741 26.5562 21.741H19.8011C19.0039 21.738 18.5233 21.2516 18.5204 20.4575C18.5175 19.6634 18.5175 18.8693 18.5204 18.0753C18.5233 17.2812 19.0098 16.7948 19.804 16.7948C20.9352 16.7918 22.0694 16.7948 23.2006 16.7948ZM20.5865 19.3089C20.5806 19.8979 20.7682 20.0854 21.3543 20.0854H21.536C21.8848 20.0707 22.1134 19.8422 22.1368 19.4964C22.2013 18.5558 21.8027 18.4738 21.0671 18.5441C20.8063 18.5705 20.6158 18.7844 20.5894 19.0481C20.584 19.1349 20.5831 19.222 20.5865 19.3089Z" fill="white"/>
<path d="M24.2468 10.7969H14.6753L14.6694 10.7735C14.7486 10.7471 14.8277 10.7178 14.9097 10.6973L22.336 8.67252C23.1097 8.46155 23.6929 8.78973 23.9098 9.56038C24.0241 9.96475 24.1296 10.3691 24.2468 10.7969Z" fill="white"/>
<path d="M10.8215 10.7647L10.9886 10.6739L18.0515 7.17522C18.7929 6.80894 19.423 7.02285 19.7923 7.76126L20.1703 8.52312C20.0853 8.54949 20.0179 8.57879 19.9505 8.59637C17.3041 9.32013 14.6607 10.0498 12.0114 10.753C11.6392 10.8497 11.226 10.8028 10.8333 10.8204L10.8215 10.7647Z" fill="white"/>
</svg>
