<svg width="24" height="24" viewBox="0 0 24 24" fill="none" xmlns="http://www.w3.org/2000/svg">
<path d="M12.508 2.34912H13.1175L14.3365 2.5523L15.5556 2.90785L16.6222 3.36499L17.4349 3.77134L18.2476 4.27928V4.38087L18.4508 4.48246L18.9588 4.88881L19.5683 5.44754L20.0254 5.90468V6.00627L20.2286 6.10785L20.4318 6.41262L20.381 6.71738L20.0254 7.17452L19.6699 7.63166L19.4159 7.88563L18.7048 8.74913L18.0445 9.56182L17.9429 9.765L17.6889 10.019L17.1302 10.6793L16.7238 11.1872L16.2667 11.746L15.6064 12.5587L15.1492 13.1174L14.4381 13.9809L14.0318 14.438L13.6254 14.9967L13.1683 15.5047L12.8635 15.8602L12.3556 16.1142H11.4413L10.9841 15.8602L10.6286 15.4539L10.4762 15.1491L10.4254 14.8952V14.3872L10.6286 13.8793L10.9334 13.5237L11.7968 12.8634L12.254 12.5079H12.3556L12.4064 12.3555L12.7619 12.1015L13.1175 11.8983L14.0318 11.1872L14.8953 10.5269L15.6572 9.96817L16.1143 9.66341L16.927 9.00309L17.6381 8.49516L17.7905 8.39357L17.7397 8.19039L17.2826 7.68246L16.8254 7.3269L16.0635 6.71738L15.1492 6.20944L14.0826 5.80309L13.1683 5.59992L12.5587 5.54912L12.508 5.49833V2.34912Z" fill="white"/>
<path d="M21.0413 7.47949L21.2445 7.58108L21.7016 8.39378L22.2096 9.66362L22.4635 10.5271L22.6667 12.1017V13.9811L22.4635 15.5049L22.0572 16.8255L21.6 17.8414L21.3461 18.2985L20.7365 19.2636L20.3302 19.7716L20.2286 19.8224H19.7207L19.3143 19.5176L18.6032 18.9081L18.1969 18.5525L17.8921 18.2478V17.689L18.4 16.9271L18.8064 16.1144L19.1619 15.2001L19.4159 14.0827L19.4667 13.6255V12.4573L19.3143 11.4922L19.0603 10.5779L18.908 10.07L19.2635 9.66362L19.7207 9.10489L20.1778 8.54616L20.8381 7.73346L21.0413 7.47949Z" fill="white"/>
<path d="M10.8318 2.34912H11.4921V5.54912L10.4762 5.65071L9.76512 5.85389L8.95242 6.15865L8.08893 6.61579L7.73338 6.86976H7.63179V6.97135L7.17464 7.3269L6.92068 7.27611L5.75242 6.10785L5.39687 5.7015L4.83813 5.19357L4.88893 4.99039L5.44766 4.53325L5.65083 4.38087H5.75242L5.80321 4.22849L6.7175 3.66976L7.83496 3.16182L8.44449 2.90785L9.25719 2.65388L10.4254 2.39991L10.8318 2.34912Z" fill="white"/>
<path d="M3.97465 5.854L4.17782 5.9048L5.54925 7.27623L5.90481 7.68258L6.26036 7.98734L6.31116 8.13972L5.85401 8.69845L5.34608 9.56194L4.88893 10.6286L4.63496 11.5937L4.48258 12.508H1.33337V11.9492L1.53655 10.4762L1.8921 9.30798L2.29845 8.39369L2.7048 7.63178L3.21274 6.86988L3.72068 6.20956L3.97465 5.854Z" fill="white"/>
<path d="M1.33337 13.5742H4.48258L4.68576 14.7425L5.09211 15.9615L5.39687 16.571L5.75242 17.2314L6.05719 17.6377L6.10798 17.7901V18.1457L5.90481 18.4504L5.49846 18.806L4.93973 19.3139L4.27941 19.8218H3.72068L3.46671 19.5679L3.00957 18.9076L2.45084 17.9933L2.04449 17.1298L1.53655 15.606L1.33337 14.0822V13.5742Z" fill="white"/>
<path d="M6.81911 20.4316H17.181L17.5366 20.584L17.689 20.838V21.2443L17.5366 21.4983L17.3334 21.6507H6.61593L6.36196 21.4475L6.26038 21.1428L6.31117 20.7364L6.51434 20.5332L6.81911 20.4316Z" fill="white"/>
<path d="M9.76513 18.146H14.235L14.4889 18.2984L14.6413 18.4508L14.6921 18.8063L14.5397 19.2127L14.2858 19.365H9.66354L9.35878 19.1111L9.30798 18.9587V18.5016L9.51116 18.2476L9.76513 18.146Z" fill="white"/>
</svg>
