<svg width="46" height="46" viewBox="0 0 46 46" fill="none" xmlns="http://www.w3.org/2000/svg">
<path d="M45.3118 28.5638C42.2397 40.8854 29.7585 48.384 17.4341 45.3114C5.11488 42.2396 -2.38462 29.7591 0.688894 17.4385C3.75971 5.11564 16.2408 -2.38358 28.5614 0.688239C40.8849 3.76006 48.384 16.2419 45.3115 28.5641L45.3117 28.5638H45.3118Z" fill="#F7931A"/>
<path d="M33.1431 19.7231C33.6009 16.6623 31.2704 15.017 28.0836 13.9194L29.1174 9.77329L26.5932 9.14441L25.5868 13.1814C24.9232 13.0159 24.2418 12.86 23.5645 12.7054L24.5782 8.64177L22.0556 8.01288L21.0212 12.1577C20.4721 12.0326 19.9327 11.9091 19.4095 11.7789L19.4124 11.7659L15.9315 10.8967L15.2601 13.5924C15.2601 13.5924 17.1328 14.0216 17.0933 14.048C18.1154 14.3031 18.3003 14.9797 18.2696 15.5159L17.0919 20.2393C17.1623 20.2572 17.2536 20.2831 17.3544 20.3235C17.2702 20.3026 17.1805 20.2798 17.0876 20.2575L15.4369 26.8744C15.312 27.1849 14.9949 27.6509 14.2803 27.4739C14.3056 27.5106 12.4457 27.0161 12.4457 27.0161L11.1925 29.9051L14.4773 30.7239C15.0884 30.8771 15.6872 31.0375 16.2769 31.1882L15.2324 35.3819L17.7536 36.0108L18.788 31.8616C19.4768 32.0486 20.1452 32.221 20.7996 32.3836L19.7687 36.5132L22.2929 37.1421L23.3374 32.9563C27.6416 33.7708 30.878 33.4424 32.2403 29.5497C33.338 26.4156 32.1856 24.6078 29.9212 23.429C31.5705 23.0486 32.8128 21.964 33.144 19.7234L33.1432 19.7229L33.1431 19.7231ZM27.376 27.8091C26.5959 30.9432 21.3185 29.249 19.6074 28.8242L20.9935 23.2683C22.7045 23.6954 28.1913 24.5406 27.3761 27.8091H27.376ZM28.1566 19.6777C27.445 22.5285 23.0526 21.0801 21.6277 20.725L22.8844 15.6861C24.3092 16.0413 28.8979 16.7041 28.1569 19.6777H28.1566Z" fill="white"/>
</svg>
