<svg width="42" height="42" viewBox="0 0 42 42" fill="none" xmlns="http://www.w3.org/2000/svg">
<g clip-path="url(#clip0_559_2699)">
<path d="M13.104 13.104H15.624L17.136 13.272L18.9 13.692L20.58 14.28L22.176 15.12L23.1 15.792L24.024 16.548L25.032 17.64L25.704 18.396L26.544 19.656L27.552 21.588L27.972 22.932L28.476 24.948L28.644 26.04L28.728 27.216V28.644L28.56 30.408L28.224 32.004L27.72 33.768L27.048 35.112L26.376 36.288L25.536 37.38L24.78 38.22L24.36 38.556L23.94 39.06L22.68 39.984L21.252 40.824L19.74 41.496L18.732 41.832L17.724 42H16.968L16.8 41.832V29.988L17.22 29.736L19.236 29.652L19.488 29.4L19.404 28.896L18.564 27.72L18.312 27.3L17.64 26.292L17.136 25.284L16.212 23.856L15.204 22.26L14.616 21.588L14.28 21.504L13.86 21.756L13.524 22.344L12.516 23.94L12.348 24.276H12.18L12.012 24.696L11.004 26.376L9.99598 27.972L9.32398 28.98V29.484L9.57598 29.652L11.424 29.736L11.844 30.156V41.748L11.592 42H11.004L9.49198 41.664L8.23198 41.16L6.88798 40.488L5.62798 39.648L4.70398 38.892L3.77998 38.052L3.02398 37.128L2.18398 35.952L1.25998 34.272L0.587984 32.424L0.167984 30.576L0.0839844 29.232V26.544L0.251984 24.78L0.671984 23.1L1.34398 21.252L2.26798 19.572L3.02398 18.48L3.69598 17.64L4.70398 16.548L5.87998 15.624L7.05598 14.868L8.06398 14.28L10.164 13.608L11.592 13.272L13.104 13.104Z" fill="white"/>
<path d="M29.568 0H30.24L31.584 0.336L33.348 1.092L34.692 1.848L35.616 2.52L36.456 3.192L37.38 3.948V4.116L37.716 4.284L38.304 4.956L39.228 6.216L40.152 7.644L40.908 9.24L41.58 11.256L41.832 12.516L41.916 13.86V16.464L41.832 17.724L41.328 19.824L40.908 20.916L39.984 22.848L39.06 24.276H38.892L38.724 24.612L38.052 25.536L36.624 26.964L35.532 27.804L34.944 28.14H34.776V28.308L33.096 29.232L31.416 29.904H31.248V26.208L30.996 24.444L30.492 22.596L29.904 21L28.812 18.9L28.896 18.396L29.82 17.052L30.996 15.204L31.836 13.86L31.92 13.272V13.104L31.584 13.02L29.568 12.936L29.232 12.6L29.148 0.588L29.316 0.168L29.568 0Z" fill="white"/>
<path d="M22.848 0H23.688L23.94 0.252L24.024 0.504V12.6L23.604 12.936H22.596L21 12.096L19.404 11.508L17.808 11.088L16.464 10.836L15.54 10.752H13.188L12.348 10.836H11.592L11.844 9.996L12.516 8.316L13.188 7.14L13.86 6.132L14.364 5.376L15.372 4.2L16.212 3.444L17.388 2.52L18.312 1.848L19.824 1.008L21.924 0.168L22.848 0Z" fill="white"/>
</g>
<defs>
<clipPath id="clip0_559_2699">
<rect width="42" height="42" fill="white"/>
</clipPath>
</defs>
</svg>
