<svg width="29" height="31" viewBox="0 0 29 31" fill="none" xmlns="http://www.w3.org/2000/svg">
<g clip-path="url(#clip0_559_2625)">
<path d="M21.0405 23.1775V18.5147L20.4528 18.4464C20.1104 18.4032 19.7937 18.2395 19.5576 17.9837C19.3214 17.7279 19.1807 17.3961 19.1598 17.0459C19.1122 16.3979 19.1066 15.7475 19.143 15.0988C19.1681 14.7104 19.3356 14.3457 19.6124 14.0769C19.8891 13.8081 20.2549 13.6547 20.6375 13.647C21.6674 13.6242 22.6917 13.6242 23.7105 13.647C24.0888 13.6501 24.4523 13.7974 24.729 14.0599C25.0057 14.3224 25.1755 14.6809 25.205 15.0646C25.2525 15.7126 25.2582 16.363 25.2217 17.0117C25.1714 17.7974 24.634 18.3439 23.8616 18.4635L23.6265 18.4977V19.1296C23.9623 19.1808 24.3318 19.1467 24.6172 19.2833C24.9027 19.42 25.1378 19.7103 25.44 19.9665C26.414 19.7274 26.901 20.0178 27.22 21.0767C27.4942 21.0566 27.7696 21.0624 28.0428 21.0938C28.3195 21.1569 28.5662 21.3157 28.7407 21.543C28.9152 21.7704 29.0069 22.0523 29 22.3406C29.0168 24.3561 29.0168 26.3544 29 28.3527C28.9948 28.804 28.8344 29.2391 28.5466 29.5825L27.7574 30.5902C27.6627 30.7153 27.5404 30.8161 27.4004 30.8843C27.2604 30.9526 27.1065 30.9864 26.9513 30.9831H23.022C22.5017 30.9762 21.9976 30.7976 21.5858 30.4741C21.1739 30.1507 20.8765 29.6999 20.7382 29.1897C20.5535 28.5919 20.4192 27.977 20.2345 27.3792C19.99 26.5508 19.5521 25.7949 18.9583 25.1759C18.5385 24.7147 18.0851 24.2707 17.6485 23.8266C17.4533 23.6482 17.313 23.4163 17.2445 23.1587C17.176 22.9011 17.1821 22.6289 17.2623 22.3748C17.3404 22.0913 17.4899 21.8334 17.696 21.6267C17.9022 21.42 18.1579 21.2716 18.4377 21.1963C18.8239 21.0767 19.143 21.2304 19.4117 21.5208L21.0405 23.1775ZM21.7961 20.4277V23.8778C21.7961 24.0999 21.8129 24.339 21.5443 24.4415C21.2756 24.5439 21.1581 24.3731 21.0069 24.2194C20.3184 23.5191 19.63 22.8018 18.9415 22.1186C18.8575 22.0332 18.656 21.9136 18.6056 21.9478C18.3687 22.1062 18.1635 22.3091 18.0011 22.5456C17.8668 22.7847 17.9675 23.0751 18.1691 23.28C18.3706 23.485 18.8575 23.9974 19.2102 24.339C19.8898 24.979 20.418 25.7673 20.755 26.6448C21.0237 27.345 21.1916 28.0795 21.4099 28.8139C21.6282 29.5483 22.2663 30.2315 23.2403 30.2315H26.7162C26.8294 30.2452 26.9441 30.2269 27.0478 30.1787C27.1514 30.1305 27.2401 30.0543 27.304 29.9583C27.5055 29.6679 27.7573 29.4288 27.9421 29.1384C28.1105 28.8961 28.2146 28.6138 28.2443 28.3186C28.2779 26.3373 28.2611 24.3731 28.2611 22.4089C28.2611 22.0503 28.0596 21.8282 27.7741 21.8111C27.4887 21.7941 27.2704 21.9649 27.2032 22.3235C27.136 22.6822 27.0521 22.7335 26.8002 22.7164C26.5483 22.6993 26.4476 22.5114 26.4476 22.2552C26.4476 21.999 26.4643 21.572 26.4476 21.2304C26.4546 21.1567 26.4464 21.0823 26.4234 21.012C26.4004 20.9418 26.3632 20.8772 26.3141 20.8225C26.2651 20.7677 26.2053 20.7241 26.1386 20.6943C26.0719 20.6646 25.9998 20.6494 25.927 20.6497C25.6247 20.6326 25.4065 20.8718 25.3897 21.2304V21.999C25.4065 22.2552 25.3393 22.4602 25.037 22.4943C24.7348 22.5285 24.6508 22.3235 24.6508 22.0161V20.5643C24.6508 20.1544 24.4493 19.9153 24.1303 19.9153C23.8112 19.9153 23.6097 20.1373 23.5929 20.5643V22.0673C23.5929 22.3065 23.4922 22.4773 23.2235 22.4773C22.9548 22.4773 22.8541 22.3235 22.8541 22.0673V16.9263C22.8373 16.5505 22.619 16.3114 22.2999 16.3285C21.9809 16.3456 21.7961 16.5676 21.7961 16.9434V20.4277ZM23.5929 17.712C24.1806 17.6607 24.4829 17.3704 24.4829 16.8238C24.4829 16.2773 24.4997 15.8161 24.4829 15.3037C24.4661 14.7913 24.147 14.4156 23.5929 14.4156C22.6525 14.3985 21.729 14.3985 20.8054 14.4156C20.2009 14.4156 19.8818 14.7401 19.8818 15.3379C19.8818 15.9357 19.865 16.2943 19.8818 16.7726C19.8986 17.2508 20.3184 17.8145 21.0405 17.6778V16.9605C21.0573 16.1577 21.5611 15.577 22.2831 15.5599C23.0052 15.5428 23.5761 16.1235 23.5929 16.9263V17.712Z" fill="white"/>
<path d="M7.47253 4.83361H1.47774C0.554169 4.81653 0.0168189 4.26997 0.0168189 3.33058C0.00562416 2.7157 0.00562416 2.10083 0.0168189 1.48595C0.0168189 0.563636 0.554173 0 1.46095 0H13.5513C14.4413 0 14.9618 0.563636 14.9786 1.46887V3.38182C14.9618 4.28705 14.4245 4.81653 13.5345 4.83361H7.47253ZM7.47253 4.06501H13.5009C14.0382 4.06501 14.2398 3.86005 14.2398 3.3135V1.48595C14.223 0.990633 14.0215 0.768595 13.5177 0.768595H1.46095C0.973976 0.768595 0.755677 0.990633 0.755677 1.48595V3.27934C0.755677 3.86005 0.957178 4.06501 1.52811 4.06501H7.47253Z" fill="white"/>
<path d="M7.47251 11.6656H1.5281C0.554154 11.6656 0.0168055 11.1191 0.0168055 10.1284C1.33947e-05 9.51357 1.33947e-05 8.91578 0.0168055 8.3009C0.0168055 7.39567 0.570952 6.83203 1.46093 6.83203H13.5177C14.4245 6.83203 14.9618 7.37859 14.9786 8.3009V10.2138C14.9618 11.102 14.4077 11.6656 13.5345 11.6656H7.47251ZM7.47251 10.897H13.5009C14.0214 10.897 14.2229 10.6921 14.2397 10.1626V8.31798C14.2229 7.80558 14.0046 7.58355 13.5009 7.58355H1.49451C0.973955 7.58355 0.755663 7.80558 0.755663 8.35214V10.0772C0.755663 10.7092 0.940374 10.897 1.56168 10.897H7.47251Z" fill="white"/>
<path d="M7.4893 13.647H13.4505C14.4412 13.647 14.9786 14.1764 14.9786 15.1842V17.0288C14.9618 17.934 14.4244 18.4806 13.5345 18.4806H1.47772C0.554152 18.4806 0.0168015 17.9169 0.0168015 16.9776C9.42033e-06 16.3798 0.0168015 15.799 0.0168015 15.2012C0.0168015 14.1935 0.55415 13.647 1.52809 13.647H7.4893ZM7.5061 14.4156H1.49451C0.973951 14.4156 0.755659 14.6205 0.755659 15.1671V16.9946C0.755659 17.4899 0.973959 17.7291 1.46093 17.7291H13.5177C14.0046 17.7291 14.2229 17.4899 14.2397 16.9946V15.2354C14.2397 14.6034 14.055 14.4156 13.4337 14.4156H7.5061Z" fill="white"/>
<path d="M22.1992 4.83374H20.4696C20.2992 4.8406 20.1292 4.81266 19.9697 4.75158C19.8101 4.69049 19.6641 4.5975 19.5405 4.47809C19.4168 4.35868 19.3179 4.21527 19.2497 4.05634C19.1814 3.89741 19.1452 3.72617 19.143 3.55275C19.1095 2.80124 19.1095 2.0668 19.143 1.31529C19.143 1.14415 19.1766 0.974738 19.242 0.817051C19.3074 0.659365 19.4032 0.516602 19.5237 0.397194C19.6442 0.277785 19.7871 0.184151 19.9438 0.121822C20.1005 0.0594922 20.2679 0.0297307 20.436 0.0342943C21.6115 0.0172144 22.7701 0.0172144 23.9288 0.0342943C24.2588 0.0294134 24.5779 0.154785 24.819 0.384086C25.0601 0.613387 25.2045 0.92878 25.2218 1.26405C25.2554 2.04972 25.2554 2.81832 25.2218 3.60399C25.2002 3.9483 25.0481 4.27065 24.7975 4.5032C24.547 4.73575 24.2175 4.86037 23.8784 4.85082H22.1992V4.83374ZM22.1656 4.06515H23.7945C24.2646 4.06515 24.4829 3.84311 24.4829 3.36487C24.4829 2.88664 24.4997 2.08388 24.4829 1.45193C24.4661 0.81997 24.2646 0.76873 23.828 0.76873H20.5368C20.117 0.76873 19.8819 0.990768 19.8819 1.40069C19.8651 2.08388 19.8651 2.75 19.8819 3.41611C19.8987 4.08223 20.117 4.06515 20.5368 4.06515H22.1656Z" fill="white"/>
<path d="M22.1824 11.6656H20.52C19.714 11.6486 19.1598 11.102 19.143 10.2822C19.1262 9.46233 19.1262 8.8987 19.143 8.2155C19.1598 7.53231 19.6972 6.83203 20.52 6.83203H23.8448C24.6676 6.83203 25.2218 7.39567 25.2386 8.23258V10.248C25.2218 11.102 24.6508 11.6486 23.8112 11.6656H22.1824ZM22.1488 10.897H23.828C23.9166 10.9081 24.0066 10.8985 24.091 10.8689C24.1754 10.8393 24.252 10.7906 24.3151 10.7264C24.3783 10.6622 24.4262 10.5842 24.4552 10.4984C24.4843 10.4125 24.4938 10.3211 24.4829 10.2309C24.4941 9.58189 24.4941 8.93286 24.4829 8.28382C24.4829 7.82266 24.2478 7.58355 23.8112 7.58355H20.5368C20.117 7.58355 19.8819 7.82266 19.8819 8.26674C19.8819 8.71082 19.8651 9.56481 19.8819 10.2138C19.8987 10.8629 20.1002 10.897 20.5871 10.897H22.1488Z" fill="white"/>
<path d="M4.92009 2.78388H3.61031C3.35843 2.80096 3.17371 2.69848 3.17371 2.40812C3.17371 2.11776 3.34163 2.03236 3.59351 2.03236H6.34742C6.40013 2.0274 6.45327 2.03402 6.50324 2.05176C6.55321 2.06951 6.59886 2.09798 6.63707 2.13523C6.67529 2.17248 6.70518 2.21765 6.72474 2.26768C6.7443 2.31771 6.75307 2.37143 6.75044 2.4252C6.75044 2.6814 6.58252 2.80096 6.33063 2.78388H4.92009Z" fill="white"/>
<path d="M4.95367 9.61577H3.64388C3.32483 9.61577 3.1569 9.47913 3.17369 9.24002C3.19049 9.0009 3.37521 8.86426 3.6103 8.86426H6.31382C6.56571 8.86426 6.75043 8.98382 6.75043 9.24002C6.75043 9.49621 6.56571 9.61577 6.29704 9.61577H4.95367Z" fill="white"/>
<path d="M4.92011 16.4478H3.64391C3.34165 16.4478 3.15693 16.2941 3.17372 16.055C3.19052 15.8158 3.39203 15.6792 3.64391 15.6792H6.28027C6.58253 15.6792 6.76725 15.8158 6.75045 16.055C6.73366 16.2941 6.53215 16.4307 6.26348 16.4307L4.92011 16.4478Z" fill="white"/>
</g>
<defs>
<clipPath id="clip0_559_2625">
<rect width="29" height="31" fill="white"/>
</clipPath>
</defs>
</svg>
