<svg width="42" height="42" viewBox="0 0 42 42" fill="none" xmlns="http://www.w3.org/2000/svg">
<g clip-path="url(#clip0_559_2724)">
<path d="M0 0H42V2.52H39.48V32.172H22.26L22.344 34.776L23.352 35.28L23.94 35.784L24.276 36.288L24.696 37.464V39.144L24.192 40.488L23.436 41.328L22.596 41.832L21.84 42H20.16L19.236 41.748L18.312 41.076L17.64 40.236L17.304 39.144V37.464L17.64 36.372L18.396 35.448L19.236 34.944L19.656 34.776L19.74 32.172H2.52V2.52H0V0ZM15.372 5.208L14.448 5.544L13.692 6.048L13.188 6.636V6.804H13.02L12.6 7.728L12.516 8.064V9.492L12.852 10.416L13.272 11.088L13.692 11.424L14.112 11.844L15.036 12.264L15.372 12.348H16.8L17.556 12.096L18.396 11.508L18.984 10.92L19.488 10.08L19.656 9.492V8.064L19.32 7.14L19.152 6.804H18.984L18.816 6.468L18.228 5.88L17.388 5.376L16.8 5.208H15.372ZM29.148 5.628L28.056 6.72L27.636 7.14L28.14 7.728L30.324 9.912L30.408 10.08H28.308L26.124 10.332L24.948 10.752L24.024 11.256L23.1 11.928L22.26 12.684L21.504 13.524L20.916 14.364L20.244 16.044L19.908 17.472L19.74 19.656L19.488 20.664L18.816 22.008L18.228 22.764L17.472 23.52L16.632 24.108L15.036 24.612L14.616 24.696L7.476 24.78V27.216H13.692L15.204 27.048L16.464 26.712L17.808 26.04L18.816 25.368L19.992 24.36L20.832 23.268L21.504 21.924L21.924 20.664L22.092 19.74L22.26 17.64L22.596 16.38L23.184 15.204L23.772 14.448L24.696 13.692V13.524L25.116 13.356L26.124 12.852L27.384 12.516L30.408 12.432L29.82 13.104L29.232 13.692L28.56 14.28L27.804 15.036L27.72 15.372L28.308 16.044L29.148 16.884L29.484 16.716L34.944 11.256L34.44 10.668L33.18 9.492L31.752 8.064L31.164 7.392L30.576 6.804L29.904 6.216L29.316 5.628H29.148ZM11.928 15.456L10.416 16.968L10.584 17.304L11.844 18.48L11.76 18.816L10.416 20.16L10.584 20.496L11.256 21.168L11.928 21.756L12.264 21.588L13.524 20.412L13.776 20.328L13.944 20.664L15.12 21.756L15.456 21.588L16.716 20.412V20.076L15.372 18.732L15.456 18.396L16.128 17.724L16.8 17.136L16.632 16.8L15.288 15.456L14.952 15.624L13.692 16.884L13.356 16.716L12.096 15.456H11.928ZM32.424 20.328L31.332 21.336L30.996 21.756L30.66 21.672L29.82 20.832L29.316 20.412L28.98 20.58L27.972 21.504L27.72 21.84L27.888 22.26L29.064 23.436L28.98 23.772L27.804 24.864L27.72 25.2L28.308 25.872L29.148 26.712L29.484 26.544L30.744 25.284L31.08 25.368L32.004 26.376L32.34 26.712L32.676 26.544L34.02 25.2L33.852 24.864L33.264 24.276L32.592 23.688L32.676 23.352L34.02 22.008L33.852 21.672L33.012 20.832L32.592 20.412L32.424 20.328Z" fill="white"/>
<path d="M15.6241 7.47607H16.4641L16.9681 7.72807L17.3041 8.06407V9.40807L16.8001 9.99607L16.5481 10.0801H15.6241L15.2041 9.82807L14.8681 9.40807L14.7841 9.24007V8.31607L15.0361 7.89607L15.3721 7.56007L15.6241 7.47607Z" fill="white"/>
</g>
<defs>
<clipPath id="clip0_559_2724">
<rect width="42" height="42" fill="white"/>
</clipPath>
</defs>
</svg>
