<svg width="42" height="42" viewBox="0 0 42 42" fill="none" xmlns="http://www.w3.org/2000/svg">
<path d="M20.832 1.76416H23.268L25.368 2.01616L27.552 2.52016L29.568 3.27616L31.248 4.03216L32.76 4.95616L34.104 5.96416L34.944 6.72016L36.204 7.89616L37.212 9.07216L38.22 10.5002L39.228 12.3482L39.9 13.7762L40.488 15.3722L40.992 17.4722L41.244 19.2362V22.7642L40.992 24.5282L40.488 26.6282L39.9 28.2242L38.892 30.3242L38.052 31.7522L37.044 33.0962L36.036 34.2722L34.608 35.6162L33.6 36.4562L32.088 37.4642L30.66 38.3042L29.568 38.7242L27.804 39.3962L26.208 39.8162L24.276 40.1522L23.268 40.2362H20.832L18.648 39.9842L16.548 39.4802L14.868 38.8922L13.776 38.3882L12.936 38.0522L11.256 37.0442L10.668 36.6242V36.4562L10.332 36.2882L9.74398 35.8682V35.5322L10.332 35.1962H10.668V35.0282L12.18 34.1882L12.6 34.3562L13.776 35.1122L15.12 35.7842L16.8 36.4562L18.144 36.8762L19.992 37.2122L20.748 37.2962H23.268L25.116 37.0442L27.048 36.5402L28.14 36.1202L29.904 35.2802L30.744 34.8602L31.668 34.1882L32.76 33.2642L33.6 32.5082L34.188 31.9202L34.776 31.2482L35.364 30.4082L36.288 28.8962L37.044 27.4682L37.716 25.6202L38.136 23.8562L38.304 22.7642L38.388 21.5882V20.4122L38.22 18.6482L37.968 17.3042L37.38 15.3722L36.708 13.8602L35.868 12.3482L35.196 11.4242L34.86 10.8362L34.524 10.4162L34.104 9.99616L33.012 8.90416L32.088 8.14816L31.248 7.47616L30.324 6.88816L29.736 6.63616L27.804 5.71216L25.872 5.12416L24.108 4.78816L23.268 4.70416H20.748L18.9 4.95616L17.304 5.37616L15.708 5.96416L14.112 6.72016L13.104 7.30816L11.928 8.14816L11.088 8.90416L10.416 9.49216L9.91198 10.0802L9.32398 10.7522L8.48398 11.8442L7.72798 13.1042L6.97198 14.5322L6.55198 15.8762L5.96398 17.9762H8.06398L7.97998 18.3962L6.80398 20.3282L5.79598 22.0082L4.78798 23.6042L4.53598 24.0242L4.19998 23.8562L3.69598 23.0162L3.19198 22.0922L2.43598 20.9162L1.25998 19.0682L0.755981 18.2282V17.9762L3.02398 17.8922L3.52798 15.6242L3.94798 14.2802L4.53598 12.8522L5.54398 10.9202L5.71198 10.6682H5.87998L6.04798 10.2482L6.71998 9.32416L7.39198 8.40016L8.39998 7.30816L9.57598 6.30016L10.5 5.54416H10.668V5.37616L11.928 4.53616L13.44 3.69616L14.28 3.36016L15.54 2.85616L17.472 2.26816L19.152 1.93216L20.832 1.76416Z" fill="white"/>
<path d="M26.964 12.5161H27.216V18.1441L26.46 18.6481L24.36 19.8241L23.184 20.5801L22.764 20.8321L22.176 20.9161V15.2881L22.932 14.7841L23.94 14.1961L24.528 13.9441L25.62 13.2721L26.964 12.5161Z" fill="white"/>
<path d="M22.176 22.5122L22.596 22.5962L24.276 23.6042L25.704 24.4442L26.712 24.9482L27.216 25.2842V30.9962L26.796 30.9122L24.864 29.8202L24.108 29.3162L22.176 28.2242V22.5122Z" fill="white"/>
<path d="M15.876 18.8999L16.296 18.9839L17.304 19.5719L19.32 20.7479L20.832 21.5879L20.748 21.9239L19.32 22.7639L17.136 24.0239L16.8 24.2759L16.212 24.5279H15.792L15.12 24.1919L14.112 23.6039L12.684 22.7639L11.088 21.8399L11.256 21.5039L11.844 21.1679L12.432 20.9159L14.28 19.8239L15.708 18.9839L15.876 18.8999Z" fill="white"/>
<path d="M27.4681 18.8999H27.8041V19.0679L28.3081 19.2359L30.3241 20.4119L31.4161 21.0839L32.4241 21.5879V21.8399L30.3241 23.0999L28.3081 24.2759L27.8041 24.5279L27.2161 24.4439L26.3761 24.0239L24.6961 23.0159L22.6801 21.8399L22.8481 21.5039L24.6121 20.5799L25.3681 20.0759L27.4681 18.8999Z" fill="white"/>
<path d="M21.588 8.90381L22.092 8.98781L24.276 10.2478L24.78 10.5838L25.368 10.8358L26.628 11.5918V11.8438L24.612 13.0198L24.024 13.3558H23.856V13.5238L23.436 13.7758L22.848 14.0278L21.924 14.5318L21.42 14.4478L20.496 13.8598L19.32 13.2718L17.64 12.2638L16.968 11.8438L17.052 11.5078L17.976 11.0038H18.144V10.8358L19.488 10.1638L21.336 9.07181L21.588 8.90381Z" fill="white"/>
<path d="M10.668 22.5122L11.088 22.6802L13.188 23.8562L14.112 24.4442L15.12 24.9482L15.624 25.2842V30.9962L15.204 30.9122L14.196 30.3242L12.768 29.4842L10.752 28.3082L10.668 28.2242V22.5122Z" fill="white"/>
<path d="M16.464 12.5161L16.8 12.6001L18.648 13.6921L19.908 14.3641L20.916 14.9521L21.336 15.2041V20.9161L20.58 20.6641L18.396 19.4041L16.884 18.4801L16.464 18.2281V12.5161Z" fill="white"/>
<path d="M32.676 22.5122H32.928V28.2242L31.248 29.2322L29.232 30.4082L28.224 30.9962H28.056V25.2002L28.896 24.6962L30.072 24.1082L31.584 23.1842L32.676 22.5122Z" fill="white"/>
<path d="M21.168 22.5122H21.336V28.2242L19.824 29.1482L17.472 30.4922L17.052 30.7442H16.884V30.9122L16.464 30.9962V25.2002L17.892 24.4442L20.16 23.1002L21.168 22.5122Z" fill="white"/>
</svg>
