<svg width="28" height="22" viewBox="0 0 28 22" fill="none" xmlns="http://www.w3.org/2000/svg">
<g clip-path="url(#clip0_559_3053)">
<path d="M4.54817 16.7912C4.71714 16.6218 4.94947 16.5229 5.19589 16.5229H27.5424C27.9507 16.5229 28.1549 17.017 27.8662 17.3064L23.4519 21.7318C23.2829 21.9012 23.0506 22 22.8041 22H0.457647C0.0492988 22 -0.154875 21.5059 0.133785 21.2166L4.54817 16.7912Z" fill="url(#paint0_linear_559_3053)"/>
<path d="M4.54811 0.268207C4.72412 0.0988129 4.95645 0 5.19583 0H27.5423C27.9507 0 28.1548 0.494065 27.8662 0.783446L23.4518 5.20885C23.2828 5.37825 23.0505 5.47706 22.8041 5.47706H0.457586C0.0492378 5.47706 -0.154936 4.983 0.133724 4.69362L4.54811 0.268207Z" fill="url(#paint1_linear_559_3053)"/>
<path d="M23.4519 8.47676C23.2829 8.30737 23.0506 8.20856 22.8041 8.20856H0.457647C0.0492988 8.20856 -0.154875 8.70262 0.133785 8.992L4.54817 13.4174C4.71714 13.5868 4.94947 13.6856 5.19589 13.6856H27.5424C27.9507 13.6856 28.1549 13.1916 27.8662 12.9022L23.4519 8.47676Z" fill="url(#paint2_linear_559_3053)"/>
</g>
<defs>
<linearGradient id="paint0_linear_559_3053" x1="25.4076" y1="-2.64361" x2="9.88137" y2="27.0214" gradientUnits="userSpaceOnUse">
<stop stop-color="#00FFA3"/>
<stop offset="1" stop-color="#DC1FFF"/>
</linearGradient>
<linearGradient id="paint1_linear_559_3053" x1="18.6452" y1="-6.18297" x2="3.11892" y2="23.482" gradientUnits="userSpaceOnUse">
<stop stop-color="#00FFA3"/>
<stop offset="1" stop-color="#DC1FFF"/>
</linearGradient>
<linearGradient id="paint2_linear_559_3053" x1="22.0049" y1="-4.42454" x2="6.47865" y2="25.2404" gradientUnits="userSpaceOnUse">
<stop stop-color="#00FFA3"/>
<stop offset="1" stop-color="#DC1FFF"/>
</linearGradient>
<clipPath id="clip0_559_3053">
<rect width="28" height="22" fill="white"/>
</clipPath>
</defs>
</svg>
