<svg width="30" height="32" viewBox="0 0 30 32" fill="none" xmlns="http://www.w3.org/2000/svg">
<g clip-path="url(#clip0_559_3045)">
<path d="M14.9988 6.71176C18.1761 6.71176 20.7518 5.20928 20.7518 3.35588C20.7518 1.50248 18.1761 0 14.9988 0C11.8215 0 9.24585 1.50248 9.24585 3.35588C9.24585 5.20928 11.8215 6.71176 14.9988 6.71176Z" fill="white"/>
<path d="M14.9988 31.9977C18.1761 31.9977 20.7518 30.4953 20.7518 28.6419C20.7518 26.7885 18.1761 25.286 14.9988 25.286C11.8215 25.286 9.24585 26.7885 9.24585 28.6419C9.24585 30.4953 11.8215 31.9977 14.9988 31.9977Z" fill="white"/>
<path d="M6.98177 11.3571C8.57041 8.59738 8.5601 5.60844 6.95874 4.68111C5.35739 3.75378 2.77139 5.23923 1.18275 7.99896C-0.405882 10.7587 -0.395571 13.7476 1.20578 14.675C2.80714 15.6023 5.39314 14.1168 6.98177 11.3571Z" fill="white"/>
<path d="M28.8126 23.9986C30.4012 21.2389 30.3918 18.2504 28.7915 17.3237C27.1912 16.397 24.6061 17.883 23.0175 20.6427C21.4288 23.4024 21.4383 26.3909 23.0385 27.3176C24.6388 28.2443 27.2239 26.7583 28.8126 23.9986Z" fill="white"/>
<path d="M6.95948 27.3168C8.56083 26.3895 8.57114 23.4005 6.98251 20.6408C5.39387 17.8811 2.80787 16.3956 1.20652 17.3229C-0.394838 18.2503 -0.405149 21.2392 1.18349 23.9989C2.77212 26.7587 5.35812 28.2441 6.95948 27.3168Z" fill="white"/>
<path d="M28.7928 14.6757C30.3931 13.749 30.4026 10.7605 28.8139 8.00081C27.2253 5.24109 24.6402 3.75513 23.0399 4.68183C21.4396 5.60853 21.4302 8.59697 23.0188 11.3567C24.6074 14.1164 27.1926 15.6024 28.7928 14.6757Z" fill="white"/>
</g>
<defs>
<clipPath id="clip0_559_3045">
<rect width="30" height="32" fill="white"/>
</clipPath>
</defs>
</svg>
