<svg width="28" height="28" viewBox="0 0 28 28" fill="none" xmlns="http://www.w3.org/2000/svg">
<g clip-path="url(#clip0_559_2611)">
<path d="M26.8691 13.9812C25.0747 15.3364 23.0467 15.8317 20.9719 16.1681L20.5514 16.2336C20.1869 16.2616 19.9065 16.056 19.8785 15.7289C19.8504 15.4018 20.0654 15.1868 20.4205 15.1121C21.3925 14.9065 22.3832 14.7289 23.3458 14.4672C24.2544 14.2394 25.1109 13.8396 25.8691 13.2896C26.5327 12.8036 26.9159 12.2149 26.8785 11.3177C26.8224 9.78496 26.8691 8.2429 26.8691 6.65412L26.6168 6.82234C25.3364 7.78496 23.8598 8.28963 22.3177 8.58869C19.2149 9.17748 16.1308 9.11206 13.0934 8.18683C12.56 8.02111 12.0411 7.81168 11.542 7.56066C11.0467 7.31767 10.5794 6.99991 10.0747 6.6915C10.0747 6.87842 10.0747 7.07468 10.0654 7.26159C10.0467 7.60739 9.81306 7.85038 9.4953 7.84103C9.42165 7.83862 9.3492 7.82171 9.28208 7.79128C9.21497 7.76084 9.15452 7.71748 9.10417 7.66366C9.05383 7.60985 9.01459 7.54664 8.98869 7.47765C8.9628 7.40866 8.95075 7.33524 8.95325 7.26159C8.95325 6.28029 8.93456 5.29897 8.96259 4.32701C8.98128 3.68215 9.29904 3.1401 9.72895 2.68215C10.5888 1.75692 11.6916 1.22421 12.8598 0.841032C15.3925 0.00925643 17.9906 -0.149623 20.6355 0.121405C22.1962 0.280283 23.7103 0.607387 25.1495 1.26159C25.8691 1.5887 26.5514 1.99991 27.1121 2.57935C27.3961 2.85586 27.6205 3.18753 27.7716 3.55397C27.9227 3.92041 27.9972 4.31388 27.9906 4.71019C27.9813 9.39243 27.9719 14.084 27.9906 18.7663C28 19.7569 27.6168 20.5233 26.9065 21.1588C25.9906 21.9812 24.8972 22.4952 23.7289 22.785C22.5607 23.0747 21.3832 23.2522 20.1962 23.4485C20.1211 23.465 20.0432 23.4648 19.9682 23.4478C19.8932 23.4308 19.8228 23.3974 19.7621 23.3501C19.7014 23.3028 19.6519 23.2428 19.6171 23.1741C19.5823 23.1055 19.5631 23.0301 19.5607 22.9532C19.5327 22.6354 19.7383 22.4018 20.1028 22.3457C20.1701 22.3298 20.2393 22.3235 20.3084 22.327C21.6822 22.1868 23.028 21.9251 24.3084 21.4111C25.0654 21.1121 25.7663 20.7382 26.3458 20.1494C26.5167 19.9818 26.6514 19.7808 26.7414 19.5589C26.8314 19.3371 26.8749 19.0991 26.8691 18.8597C26.8504 17.3644 26.8691 15.8784 26.8691 14.3831V13.9812ZM18.4392 7.84103C20.3084 7.82234 22.1215 7.62608 23.8691 7.00926C24.757 6.6915 25.5981 6.30832 26.2803 5.63542C26.9626 4.96253 27.0561 4.09337 26.2897 3.32701C26.1977 3.21886 26.0907 3.12444 25.9719 3.04664C25.2617 2.67281 24.5888 2.21486 23.8318 1.96253C20.4579 0.841032 17.0374 0.850378 13.6168 1.77561C12.5701 2.06533 11.5607 2.48589 10.7383 3.23356C9.91586 3.98122 9.82241 4.94384 10.7476 5.71019C11.2911 6.14785 11.8916 6.50943 12.5327 6.78496C14.4205 7.59804 16.4299 7.81299 18.4392 7.84103Z" fill="white"/>
<path d="M19.028 18.5045C19.0186 23.7568 14.7383 27.9998 9.46723 27.9905C4.1962 27.9811 -0.0187517 23.7008 -6.01434e-05 18.4297C0.0186314 13.1587 4.28966 8.9531 9.49527 8.96244C10.7489 8.95874 11.991 9.20309 13.1498 9.68142C14.3087 10.1598 15.3614 10.8626 16.2475 11.7496C17.1335 12.6365 17.8354 13.6899 18.3126 14.8492C18.7898 16.0086 19.0329 17.2508 19.028 18.5045ZM1.11209 18.4765C1.11209 23.1026 4.87845 26.8783 9.49527 26.8783C10.5994 26.8796 11.693 26.6631 12.7134 26.2415C13.7338 25.8198 14.6612 25.2011 15.4423 24.4208C16.2235 23.6405 16.8432 22.7139 17.266 21.6939C17.6889 20.6739 17.9065 19.5806 17.9065 18.4765C17.9158 13.8596 14.1495 10.0839 9.53265 10.0746C8.42807 10.0734 7.33407 10.2897 6.31311 10.7113C5.29214 11.1328 4.36421 11.7514 3.58228 12.5316C2.80036 13.3118 2.17977 14.2383 1.75593 15.2583C1.33209 16.2784 1.11332 17.3719 1.11209 18.4765Z" fill="white"/>
<path d="M14.5515 18.5047C14.5515 19.3085 14.5421 20.1122 14.5515 20.916C14.5656 21.0613 14.5346 21.2075 14.4627 21.3346C14.3908 21.4617 14.2815 21.5635 14.1496 21.6262C12.7477 22.43 11.349 23.2431 9.95332 24.0655C9.82221 24.1505 9.66893 24.195 9.51266 24.1933C9.3564 24.1916 9.2041 24.1439 9.07482 24.0561C7.6823 23.2431 6.29912 22.4393 4.89725 21.6449C4.76033 21.5811 4.64597 21.4772 4.56923 21.3471C4.49249 21.217 4.45696 21.0667 4.46734 20.916C4.47669 19.2804 4.47669 17.6543 4.46734 16.0188C4.45944 15.8792 4.49236 15.7404 4.56206 15.6192C4.63177 15.4981 4.73525 15.3998 4.85987 15.3365L9.12155 12.8786C9.23792 12.8014 9.37445 12.7603 9.51407 12.7603C9.6537 12.7603 9.79023 12.8014 9.90659 12.8786L14.1683 15.3365C14.2952 15.3988 14.3999 15.4985 14.4684 15.6222C14.537 15.7458 14.5659 15.8875 14.5515 16.0281C14.5421 16.8505 14.5515 17.6823 14.5515 18.5047ZM6.10286 15.916L6.21501 16.0188C7.26173 16.6262 8.30846 17.2337 9.36454 17.8225C9.42621 17.8414 9.49103 17.8478 9.55521 17.8414C9.6194 17.835 9.68166 17.8158 9.73837 17.7851L12.701 16.0842L12.9346 15.916L9.69164 14.0561C9.63997 14.0291 9.58281 14.0142 9.5245 14.0125C9.46619 14.0109 9.40829 14.0226 9.35519 14.0468L6.10286 15.916ZM8.95332 22.673C8.95332 21.4206 8.95332 20.2431 8.94398 19.0655C8.94398 18.9627 8.82248 18.8225 8.71968 18.7664C7.77575 18.2057 6.82248 17.6636 5.87856 17.1216C5.80379 17.0748 5.71968 17.0468 5.59818 16.9814C5.59818 18.215 5.58884 19.4019 5.59818 20.5889C5.60366 20.6319 5.61814 20.6732 5.64068 20.7103C5.66323 20.7473 5.69333 20.7792 5.72903 20.8038C6.77575 21.4206 7.84117 22.0281 8.95332 22.673ZM10.0748 22.6262C10.1198 22.6255 10.1643 22.616 10.2057 22.5982C11.2244 22.0094 12.243 21.43 13.2617 20.8225C13.3103 20.7807 13.3495 20.7291 13.3769 20.6711C13.4043 20.6132 13.4192 20.5501 13.4206 20.486C13.4393 19.3832 13.43 18.2711 13.43 17.1683C13.4239 17.1049 13.4114 17.0422 13.3926 16.9814L10.2244 18.8225C10.1402 18.8692 10.0842 19.0188 10.0748 19.1309C10.0655 19.673 10.0748 20.2244 10.0748 20.7758V22.6262Z" fill="white"/>
</g>
<defs>
<clipPath id="clip0_559_2611">
<rect width="28" height="28" fill="white"/>
</clipPath>
</defs>
</svg>
